<?xml version="1.0" standalone="no"?>
<!DOCTYPE svg PUBLIC "-//W3C//DTD SVG 20010904//EN"
 "http://www.w3.org/TR/2001/REC-SVG-20010904/DTD/svg10.dtd">
<svg version="1.0" xmlns="http://www.w3.org/2000/svg"
 width="376.000000pt" height="376.000000pt" viewBox="0 0 376.000000 376.000000"
 preserveAspectRatio="xMidYMid meet">
<metadata>
Created by potrace 1.11, written by Peter Selinger 2001-2013
</metadata>
<g transform="translate(0.000000,376.000000) scale(0.100000,-0.100000)"
fill="#000000" stroke="none">
<path d="M1612 3458 c-18 -18 -17 -292 2 -307 9 -8 99 -11 307 -9 l294 3 0
155 0 155 -65 6 c-124 12 -525 10 -538 -3z"/>
<path d="M1107 3292 c-21 -23 -22 -93 -3 -131 46 -89 166 -74 166 21 0 90
-113 166 -163 110z"/>
<path d="M1666 3033 c-52 -596 -130 -965 -263 -1243 l-46 -95 -5 -674 c-4
-628 -4 -676 13 -707 33 -62 35 -63 517 -67 486 -5 483 -6 521 61 18 31 20 69
25 710 l5 677 -30 60 c-114 225 -213 727 -239 1211 l-7 121 -135 7 c-74 3
-184 6 -243 6 l-107 0 -6 -67z m426 -1448 c53 -8 134 -27 179 -41 l82 -28 -6
-224 c-4 -124 -7 -366 -7 -539 l0 -313 -292 0 c-161 0 -364 3 -451 7 l-157 6
2 536 3 536 57 23 c125 49 396 67 590 37z"/>
<path d="M1768 1187 c-60 -34 -108 -64 -108 -67 0 -3 16 -14 36 -25 l36 -19
74 39 74 40 0 47 c0 27 -1 48 -2 47 -2 0 -51 -28 -110 -62z"/>
<path d="M1910 1203 l0 -48 75 -40 75 -40 35 19 c19 11 35 23 35 27 0 4 -30
24 -67 45 -38 20 -87 48 -110 61 l-43 25 0 -49z"/>
<path d="M1828 1103 c-38 -21 -68 -40 -68 -44 0 -4 30 -24 67 -45 l67 -37 73
39 c40 21 69 42 65 46 -6 6 -132 78 -135 78 -1 0 -32 -17 -69 -37z"/>
<path d="M1640 966 l0 -134 40 21 40 22 -2 89 -3 89 -37 24 -38 23 0 -134z"/>
<path d="M2103 1069 c-33 -21 -33 -21 -33 -105 l0 -84 33 -20 c17 -11 35 -20
40 -20 4 0 7 56 7 125 0 69 -3 125 -7 125 -5 0 -23 -10 -40 -21z"/>
<path d="M1740 963 l0 -78 69 -37 c38 -21 72 -38 75 -38 3 0 6 33 6 74 l0 74
-71 41 c-39 23 -73 41 -75 41 -2 0 -4 -35 -4 -77z"/>
<path d="M1980 1002 l-65 -37 -3 -79 -3 -78 71 37 70 37 0 79 c0 44 -1 79 -3
79 -1 0 -31 -17 -67 -38z"/>
<path d="M1697 836 l-38 -24 106 -61 c59 -33 109 -61 111 -61 2 0 4 21 4 48
l0 47 -70 38 c-38 20 -71 37 -72 37 -2 0 -20 -11 -41 -24z"/>
<path d="M1980 822 c-64 -37 -65 -38 -68 -85 -2 -26 0 -47 3 -47 6 0 142 76
194 108 l24 15 -39 23 c-21 13 -41 24 -44 23 -3 0 -34 -17 -70 -37z"/>
<path d="M2595 3091 c-31 -13 -49 -40 -80 -120 -37 -98 -81 -146 -152 -167
-30 -9 -65 -13 -78 -10 -22 6 -23 4 -19 -26 7 -56 24 -212 24 -224 0 -6 29
-28 64 -49 212 -124 368 -353 417 -613 17 -89 6 -288 -20 -377 -38 -126 -109
-258 -186 -345 -31 -33 -32 -40 -38 -142 l-6 -106 44 43 c78 79 84 80 311 80
184 0 204 2 223 19 29 26 27 74 -4 120 -14 20 -55 74 -92 119 -84 104 -109
156 -91 194 18 38 70 65 233 118 154 50 195 71 220 109 38 58 -8 93 -220 166
-169 58 -219 83 -248 122 -18 24 -19 32 -9 65 6 21 28 65 48 98 73 119 94 161
94 192 0 79 -31 94 -212 102 -158 7 -177 16 -217 95 -30 59 -37 128 -21 196 9
39 25 66 64 108 74 81 86 101 86 148 0 73 -65 113 -135 85z"/>
<path d="M1253 3013 c-15 -23 -17 -44 -14 -133 3 -58 5 -147 5 -198 1 -92 0
-94 -28 -119 -29 -25 -33 -25 -130 -19 -296 20 -279 20 -306 -2 -18 -14 -24
-29 -23 -55 1 -40 21 -77 99 -182 66 -89 84 -126 84 -168 0 -56 -36 -80 -210
-142 -98 -35 -155 -65 -172 -90 -4 -5 -8 -27 -8 -48 0 -50 45 -94 173 -170
126 -75 162 -107 174 -154 19 -78 -31 -163 -95 -163 -15 0 -46 -9 -69 -19 -55
-26 -77 -67 -71 -138 10 -120 120 -158 228 -78 94 69 198 20 235 -110 16 -54
16 -58 -11 -163 -47 -184 -32 -257 60 -301 81 -40 76 -59 76 279 l0 299 -28
33 c-240 278 -274 705 -82 1022 73 121 200 244 320 312 l67 38 23 149 23 150
-74 69 c-143 131 -209 158 -246 101z"/>
<path d="M3115 2538 c-32 -17 -45 -39 -45 -75 0 -67 77 -97 134 -52 37 29 37
89 0 118 -29 23 -58 26 -89 9z"/>
<path d="M319 1931 c-35 -36 -37 -64 -4 -96 18 -19 35 -25 65 -25 94 0 141 70
85 125 -37 37 -106 35 -146 -4z"/>
<path d="M3158 1079 c-29 -16 -23 -73 8 -98 33 -26 85 -27 107 -3 24 27 21 50
-12 83 -31 30 -71 37 -103 18z"/>
<path d="M2520 611 l0 -184 40 6 c52 7 96 39 110 83 16 48 9 70 -52 148 -29
38 -63 82 -75 99 l-23 31 0 -183z"/>
<path d="M1000 470 c-22 -22 -27 -79 -8 -98 18 -18 73 -14 91 6 24 26 22 88
-2 102 -30 16 -59 12 -81 -10z"/>
</g>
</svg>
