<?xml version="1.0" encoding="utf-8"?>
<!-- Generator: Adobe Illustrator 21.1.0, SVG Export Plug-In . SVG Version: 6.00 Build 0)  -->
<svg version="1.1" id="Ebene_1" xmlns="http://www.w3.org/2000/svg" xmlns:xlink="http://www.w3.org/1999/xlink" x="0px" y="0px"
	 viewBox="0 0 455 208" style="enable-background:new 0 0 455 208;" xml:space="preserve">
<style type="text/css">
	.st0{fill:#353535;}
</style>
<g>
	<g>
		<path class="st0" d="M295.5,66.4c-0.3-0.4-7.4-9.3-19.6-18.3c-7.2-5.3-14.8-9.5-22.4-12.5c9.6,8.2,15.7,20.4,15.7,34
			c0,13.6-6.1,25.8-15.7,34c7.6-3,15.1-7.2,22.4-12.5c12.2-9,19.3-17.9,19.6-18.3l2.5-3.2L295.5,66.4z"/>
		<path class="st0" d="M195.7,35.6c-7.6,3-15.1,7.2-22.4,12.5c-12.2,9-19.3,17.9-19.6,18.3l-2.5,3.2l2.5,3.2
			c0.3,0.4,7.4,9.3,19.6,18.3c7.2,5.3,14.8,9.5,22.4,12.5c-9.6-8.2-15.7-20.4-15.7-34C180,56,186.1,43.8,195.7,35.6z"/>
		<g>
			<path class="st0" d="M230.9,86.3c0,0-0.2,2.9-1.4,4c-0.6,0.6-1.5,0.7-2.1,0.1c-0.7-0.7-1-1.4-1.2-2.5c-0.1-1.1-0.1-2.4,0.1-3.5
				c0.7-4.2,1.6-7.5,0-11.7c-0.3,2.8-1,5.9-2.8,8.3c-1.1,1.5-2.5,2.5-4.1,2.2c-2.2-0.5-3.5-2.9-4.5-4.6c-2.4,2.9-3.4,9.3-2.5,13.1
				c0.4,1.8,1,3.3,1.7,4.5c3.1,1.2,6.5,1.8,10.1,1.8c2.3,0,4.6-0.3,6.8-0.8C232.8,91.6,230.9,86.3,230.9,86.3z"/>
			<path class="st0" d="M224.2,40.5c-15.9,0-28.8,12.9-28.8,28.8c0,10.2,5.3,19.2,13.3,24.3c-4.2-5.4-4.7-12.8,0-19.3
				c3-4.2,7.5-7.3,10.1-13.2c1,3.6-0.2,7.1-1.3,10.6c-0.5,1.7-1.1,3.7,1.2,4.3c2.2,0.7,3-1.6,3.3-3.1c0.3-1.7-0.2-8.2-0.5-11.4
				c-0.3-3-0.8-6.1-0.5-9.1c0.4-3.4,1.9-6.5,5.3-8.9c-3.9,7-0.5,16.4,1.1,18.6c1.1,1.6,2.6,4.7,4.1,3.7c0.4-0.3,0.4-1.2,0.4-1.6
				c-0.1-3.2-1-6.4-2.1-9.4c3.4,3.9,5.2,5.9,7.8,9.7c2.2,3.1,3.8,7.7,4.8,11.4c1.8,6.9-0.1,13.9-4.4,18.6c8.9-4.9,15-14.4,15-25.3
				C253,53.3,240.1,40.5,224.2,40.5z"/>
		</g>
	</g>
	<g>
		<path class="st0" d="M114.7,149.1c-0.1,0.2-0.2,0.4-0.2,0.5c-0.1,0.1-0.1,0.3-0.2,0.4c-0.1,0.1-0.2,0.2-0.3,0.2s-0.3,0.1-0.5,0.1
			h-3.1c-0.8,0-1.2-0.4-1.2-1.2V126c0-0.2,0-0.3,0.1-0.5c0.1-0.1,0.2-0.3,0.3-0.4s0.2-0.2,0.4-0.2s0.3-0.1,0.4-0.1h3.5
			c0.4,0,0.7,0.1,0.9,0.3c0.2,0.2,0.3,0.5,0.3,0.8v7.1c0.3-0.3,0.6-0.6,0.9-0.9c0.3-0.3,0.7-0.6,1.1-0.9s0.8-0.5,1.3-0.6
			s1-0.2,1.5-0.2c1.4,0,2.7,0.3,3.9,0.8c1.2,0.5,2.2,1.2,3.1,2.2c0.9,0.9,1.5,2,2,3.2c0.5,1.2,0.7,2.6,0.7,4c0,1.4-0.2,2.8-0.7,4
			s-1.1,2.3-2,3.2c-0.9,0.9-1.9,1.6-3.1,2.2c-1.2,0.5-2.5,0.8-3.9,0.8c-0.5,0-1-0.1-1.5-0.3s-0.9-0.4-1.3-0.7
			c-0.4-0.3-0.8-0.6-1.1-0.9c-0.3-0.3-0.7-0.6-0.9-0.9L114.7,149.1z M124,140.5c0-0.7-0.1-1.3-0.3-1.9s-0.5-1.1-0.9-1.6
			s-0.9-0.8-1.4-1.1c-0.5-0.3-1.2-0.4-1.8-0.4s-1.3,0.1-1.9,0.4c-0.6,0.3-1.1,0.6-1.5,1.1s-0.8,1-1,1.6c-0.3,0.6-0.4,1.2-0.4,1.9
			v0.2c0,0.7,0.2,1.3,0.4,1.8s0.6,1.1,1,1.5s0.9,0.7,1.5,1c0.6,0.2,1.2,0.4,1.9,0.4c0.7,0,1.3-0.1,1.8-0.4c0.5-0.3,1-0.6,1.4-1
			c0.4-0.4,0.7-0.9,0.9-1.5C123.9,141.8,124,141.2,124,140.5z"/>
		<path class="st0" d="M134.3,126c0-0.3,0.1-0.6,0.2-0.8c0.2-0.2,0.4-0.3,0.9-0.3h3.8c0.1,0,0.2,0,0.3,0.1s0.2,0.1,0.3,0.2
			c0.1,0.1,0.2,0.2,0.2,0.4c0.1,0.1,0.1,0.3,0.1,0.5v23.2c0,0.4-0.1,0.7-0.3,0.9c-0.2,0.2-0.5,0.3-0.9,0.3h-3.6
			c-0.4,0-0.7-0.1-0.9-0.3c-0.2-0.2-0.2-0.5-0.2-0.9V126z"/>
		<path class="st0" d="M165.7,149.2c0,0.2,0,0.3-0.1,0.5s-0.2,0.3-0.3,0.4c-0.1,0.1-0.2,0.2-0.4,0.2c-0.2,0-0.3,0-0.4,0h-3.1
			c-0.2,0-0.4,0-0.5-0.1s-0.2-0.1-0.3-0.2s-0.2-0.2-0.2-0.4c-0.1-0.1-0.1-0.3-0.2-0.5l-0.4-1.2c-0.3,0.3-0.6,0.6-0.9,0.9
			s-0.7,0.6-1.1,0.9s-0.8,0.5-1.3,0.7c-0.5,0.2-1,0.3-1.5,0.3c-0.9,0-1.8-0.1-2.7-0.4s-1.7-0.6-2.4-1c-0.7-0.4-1.4-1-2-1.6
			c-0.6-0.6-1.1-1.3-1.6-2.1c-0.4-0.8-0.8-1.6-1-2.4s-0.4-1.8-0.4-2.7c0-1.4,0.3-2.8,0.8-4c0.5-1.2,1.2-2.3,2.2-3.2
			c0.9-0.9,2-1.6,3.2-2.2c1.2-0.5,2.5-0.8,4-0.8c0.6,0,1.2,0.1,1.8,0.3c0.5,0.2,1,0.4,1.5,0.8c0.4,0.3,0.8,0.7,1.2,1.1
			s0.7,0.8,1,1.2l0.6-1.9c0.1-0.3,0.2-0.5,0.3-0.6c0.1-0.2,0.1-0.3,0.2-0.4c0.1-0.1,0.2-0.1,0.3-0.2c0.1,0,0.3,0,0.5,0h2.3
			c0.1,0,0.2,0,0.4,0s0.3,0.1,0.4,0.2c0.1,0.1,0.2,0.2,0.3,0.4s0.1,0.3,0.1,0.5V149.2z M150.4,140.5c0,0.7,0.1,1.3,0.3,1.9
			c0.2,0.6,0.5,1.1,0.9,1.5c0.4,0.4,0.9,0.8,1.4,1c0.6,0.3,1.2,0.4,1.8,0.4c0.7,0,1.3-0.1,1.9-0.4c0.6-0.3,1.1-0.6,1.5-1
			c0.4-0.4,0.8-0.9,1-1.5c0.2-0.6,0.4-1.2,0.4-1.9c0-0.7-0.1-1.3-0.4-1.9s-0.6-1.1-1-1.6c-0.4-0.5-1-0.8-1.5-1.1s-1.2-0.4-1.9-0.4
			c-0.7,0-1.3,0.1-1.8,0.4s-1,0.6-1.4,1.1c-0.4,0.5-0.7,1-0.9,1.6C150.5,139.2,150.4,139.8,150.4,140.5z"/>
		<path class="st0" d="M170.7,131.8c0-0.4,0.1-0.7,0.3-0.9c0.2-0.2,0.5-0.3,0.9-0.3H185c0.3,0,0.6,0.1,0.9,0.3
			c0.3,0.2,0.4,0.5,0.4,0.9v2.7c0,0.1,0,0.2,0,0.3s-0.1,0.2-0.2,0.4l-8.5,10.1h7.7c0.4,0,0.7,0.1,0.9,0.3c0.2,0.2,0.3,0.5,0.3,1v2.4
			c0,0.2,0,0.3-0.1,0.5s-0.1,0.3-0.2,0.4c-0.1,0.1-0.2,0.2-0.4,0.3c-0.1,0.1-0.3,0.1-0.5,0.1h-13.7c-0.2,0-0.3,0-0.5-0.1
			c-0.1-0.1-0.3-0.2-0.4-0.3c-0.1-0.1-0.2-0.3-0.3-0.4s-0.1-0.3-0.1-0.5v-2.1c0-0.1,0-0.3,0-0.4c0-0.1,0.1-0.3,0.2-0.4
			c0.7-0.8,1.4-1.6,2.2-2.5c0.8-0.9,1.5-1.8,2.3-2.7c0.8-0.9,1.5-1.8,2.3-2.7c0.8-0.9,1.5-1.7,2.2-2.5H172c-0.4,0-0.7-0.1-0.9-0.3
			c-0.2-0.2-0.3-0.5-0.3-1V131.8z"/>
		<path class="st0" d="M191,124c0-0.4,0.1-0.7,0.3-0.9c0.2-0.2,0.5-0.3,0.9-0.3h3.6c0.4,0,0.7,0.1,0.9,0.3c0.2,0.2,0.3,0.5,0.3,0.9
			v3c0,0.1,0,0.3-0.1,0.4s-0.1,0.3-0.2,0.4c-0.1,0.1-0.2,0.2-0.4,0.3c-0.1,0.1-0.3,0.1-0.5,0.1h-3.6c-0.8,0-1.1-0.4-1.1-1.3V124z
			 M191,131.9c0-0.3,0.1-0.6,0.3-0.9c0.2-0.2,0.5-0.4,0.9-0.4h3.5c0.1,0,0.3,0,0.4,0.1c0.1,0.1,0.3,0.1,0.4,0.2s0.2,0.2,0.3,0.4
			c0.1,0.1,0.1,0.3,0.1,0.5v17.3c0,0.4-0.1,0.7-0.3,0.9c-0.2,0.2-0.5,0.3-0.9,0.3h-3.5c-0.8,0-1.1-0.4-1.1-1.2V131.9z"/>
		<path class="st0" d="M202.6,130.9c0.1-0.1,0.3-0.2,0.4-0.2c0.1,0,0.3,0,0.4,0h2.3c0.2,0,0.3,0,0.5,0.1c0.1,0.1,0.2,0.2,0.3,0.3
			s0.2,0.2,0.2,0.4s0.1,0.3,0.2,0.4l0.5,2c0.2-0.3,0.4-0.7,0.7-1.1c0.3-0.4,0.7-0.8,1.1-1.1s1-0.7,1.6-0.9c0.6-0.2,1.4-0.4,2.2-0.4
			c1.2,0,2.2,0.2,3.2,0.7c1,0.5,1.8,1.1,2.5,1.9s1.2,1.7,1.6,2.7s0.6,2.2,0.6,3.4v10.2c0,0.4-0.1,0.7-0.3,0.9
			c-0.2,0.2-0.4,0.3-0.8,0.3h-3.6c-0.4,0-0.8-0.1-0.9-0.2s-0.2-0.4-0.2-0.9v-10.1c0-0.4-0.1-0.9-0.3-1.3s-0.5-0.7-0.8-1.1
			c-0.3-0.3-0.7-0.5-1.1-0.7c-0.4-0.2-0.8-0.3-1.3-0.3c-0.4,0-0.8,0.1-1.1,0.2c-0.4,0.2-0.7,0.4-1.1,0.7c-0.3,0.3-0.6,0.6-0.8,1
			c-0.2,0.4-0.3,0.8-0.4,1.3v10.1c0,0.2,0,0.4-0.1,0.5s-0.2,0.3-0.3,0.4c-0.1,0.1-0.3,0.1-0.4,0.2c-0.1,0-0.3,0-0.4,0h-3.5
			c-0.4,0-0.8-0.1-1-0.3c-0.2-0.2-0.3-0.5-0.3-0.9v-17.3c0-0.2,0-0.4,0.1-0.5C202.4,131.1,202.5,131,202.6,130.9L202.6,130.9z"/>
		<path class="st0" d="M240.1,149.7c0.1-0.4,0.2-0.8,0.2-1.2c0-0.5,0-0.9,0-1.4c-0.3,0.3-0.6,0.7-0.9,1c-0.3,0.4-0.7,0.7-1,1
			c-0.4,0.3-0.8,0.6-1.3,0.8s-1,0.3-1.7,0.3c-1.4,0-2.7-0.2-3.9-0.7c-1.2-0.5-2.2-1.1-3.1-2c-0.9-0.9-1.5-1.9-2-3.1
			c-0.5-1.2-0.7-2.5-0.7-3.9c0-1.4,0.2-2.7,0.7-4c0.5-1.2,1.2-2.3,2-3.2c0.9-0.9,1.9-1.6,3.1-2.2s2.5-0.8,3.9-0.8
			c0.6,0,1.2,0.1,1.7,0.3c0.5,0.2,1,0.4,1.4,0.8c0.4,0.3,0.8,0.7,1.1,1c0.3,0.4,0.7,0.8,1,1.2l0.6-1.8c0.1-0.2,0.1-0.3,0.2-0.5
			s0.1-0.3,0.2-0.4c0.1-0.1,0.2-0.2,0.3-0.2s0.3-0.1,0.5-0.1h2.3c0.1,0,0.2,0,0.4,0c0.2,0,0.3,0.1,0.4,0.2c0.1,0.1,0.3,0.2,0.3,0.4
			c0.1,0.1,0.1,0.3,0.1,0.5v15.8c0,1.6-0.3,3-0.8,4.3c-0.5,1.3-1.2,2.3-2.2,3.2c-0.9,0.9-2,1.5-3.2,2c-1.3,0.5-2.6,0.7-4,0.7
			c-0.6,0-1.2,0-1.8-0.1c-0.6-0.1-1.3-0.2-1.9-0.4s-1.3-0.4-1.8-0.8c-0.6-0.3-1.1-0.7-1.6-1.1c-0.1-0.1-0.2-0.2-0.3-0.3
			c-0.1-0.1-0.2-0.3-0.2-0.4c0-0.2,0-0.3,0-0.5c0-0.2,0.1-0.4,0.3-0.6l1.5-2c0.3-0.3,0.5-0.4,0.8-0.5c0.2,0,0.5,0.1,0.9,0.4
			c0.3,0.2,0.6,0.4,0.9,0.6c0.3,0.1,0.7,0.3,1,0.4s0.7,0.1,1.1,0.2c0.3,0,0.7,0,0.9,0c0.5,0,1-0.1,1.5-0.2c0.5-0.1,1-0.3,1.4-0.6
			c0.4-0.2,0.8-0.5,1.2-0.9C239.7,150.5,240,150.1,240.1,149.7z M231.2,140.4c0,0.7,0.1,1.3,0.3,1.9c0.2,0.6,0.5,1.1,0.9,1.5
			s0.9,0.8,1.4,1c0.6,0.2,1.2,0.4,1.8,0.4c0.7,0,1.3-0.1,1.9-0.3c0.6-0.2,1.1-0.6,1.5-1c0.4-0.4,0.8-0.9,1-1.5
			c0.3-0.6,0.4-1.2,0.4-1.8v-0.5c0-0.6-0.2-1.2-0.4-1.8c-0.3-0.6-0.6-1.1-1-1.5s-0.9-0.8-1.5-1c-0.6-0.3-1.2-0.4-1.9-0.4
			c-0.7,0-1.3,0.1-1.8,0.4s-1,0.6-1.4,1.1s-0.7,1-0.9,1.6C231.3,139.2,231.2,139.8,231.2,140.4z"/>
		<path class="st0" d="M257.6,123.4c0.2,0,0.4,0.1,0.6,0.2c0.1,0.1,0.2,0.3,0.2,0.6v1.3c0,0.2-0.1,0.4-0.2,0.5
			c-0.1,0.2-0.3,0.2-0.5,0.2c-0.2,0-0.4,0-0.6,0.1c-0.2,0.1-0.5,0.2-0.7,0.4c-0.2,0.2-0.4,0.5-0.6,0.8c-0.2,0.3-0.2,0.7-0.2,1.2v3.2
			h2.1c0.2,0,0.4,0.1,0.6,0.2c0.1,0.1,0.2,0.3,0.2,0.6v1c0,0.3-0.1,0.5-0.2,0.7c-0.1,0.2-0.3,0.2-0.6,0.2h-2.1v14.7
			c0,0.3-0.1,0.5-0.3,0.6c-0.2,0.1-0.4,0.2-0.6,0.2h-1.4c-0.3,0-0.4-0.1-0.6-0.2c-0.1-0.2-0.2-0.4-0.2-0.6v-14.7h-1.5
			c-0.2,0-0.4-0.1-0.6-0.2s-0.2-0.4-0.2-0.7v-1c0-0.3,0.1-0.5,0.2-0.6s0.3-0.2,0.6-0.2h1.5v-3.3c0-0.7,0.1-1.4,0.3-2.1
			s0.6-1.2,1-1.7c0.4-0.5,1-0.9,1.6-1.2C256.1,123.5,256.8,123.4,257.6,123.4z"/>
		<path class="st0" d="M262.5,140.5c0-1.4,0.3-2.7,0.8-3.9c0.5-1.2,1.3-2.3,2.2-3.2c0.9-0.9,2-1.7,3.2-2.2c1.2-0.5,2.5-0.8,3.9-0.8
			c0.9,0,1.8,0.1,2.7,0.4c0.9,0.2,1.7,0.6,2.4,1c0.8,0.4,1.4,1,2.1,1.6c0.6,0.6,1.2,1.3,1.6,2.1c0.4,0.8,0.8,1.6,1,2.4
			c0.2,0.9,0.4,1.8,0.4,2.7s-0.1,1.8-0.4,2.7c-0.2,0.9-0.6,1.7-1,2.4c-0.5,0.8-1,1.4-1.6,2.1c-0.6,0.6-1.3,1.2-2.1,1.6
			s-1.6,0.8-2.4,1c-0.9,0.2-1.8,0.4-2.7,0.4c-0.9,0-1.8-0.1-2.7-0.4c-0.9-0.2-1.7-0.6-2.4-1c-0.8-0.4-1.4-1-2.1-1.6
			c-0.6-0.6-1.2-1.3-1.6-2.1c-0.4-0.8-0.8-1.6-1-2.4C262.6,142.3,262.5,141.5,262.5,140.5z M265.6,140.5c0,1,0.2,1.9,0.6,2.8
			s0.9,1.6,1.5,2.3s1.4,1.2,2.2,1.6s1.8,0.6,2.8,0.6c1,0,1.9-0.2,2.7-0.6s1.6-0.9,2.2-1.6c0.6-0.7,1.1-1.4,1.5-2.3
			c0.4-0.9,0.5-1.8,0.5-2.8c0-1-0.2-1.9-0.5-2.8c-0.4-0.9-0.9-1.7-1.5-2.3c-0.6-0.7-1.4-1.2-2.2-1.6c-0.9-0.4-1.8-0.6-2.7-0.6
			c-1,0-1.9,0.2-2.8,0.6c-0.9,0.4-1.6,0.9-2.2,1.6s-1.1,1.5-1.5,2.3S265.6,139.6,265.6,140.5z"/>
		<path class="st0" d="M302,145.9c0.1-0.1,0.2-0.1,0.2-0.2s0.2-0.1,0.3-0.1c0.1,0,0.2,0,0.3,0c0.1,0,0.2,0.1,0.3,0.2
			c0.2,0.3,0.4,0.5,0.5,0.7c0.1,0.2,0.2,0.3,0.3,0.4c0.1,0.1,0.1,0.2,0.2,0.2c0.1,0.1,0.1,0.2,0.1,0.2c0,0.1,0,0.2,0,0.3
			c0,0.1-0.1,0.2-0.2,0.3c-0.1,0.1-0.2,0.3-0.4,0.4c-0.4,0.4-0.9,0.7-1.4,1c-0.5,0.3-1,0.5-1.5,0.7c-0.5,0.2-1.1,0.4-1.7,0.5
			c-0.6,0.1-1.2,0.2-1.9,0.2c-0.9,0-1.8-0.1-2.7-0.4c-0.9-0.2-1.7-0.6-2.4-1c-0.8-0.5-1.5-1-2.1-1.6s-1.2-1.3-1.6-2.1
			c-0.5-0.8-0.8-1.6-1.1-2.4c-0.2-0.9-0.4-1.8-0.4-2.7s0.1-1.8,0.4-2.7c0.2-0.9,0.6-1.7,1.1-2.4c0.5-0.8,1-1.4,1.6-2.1
			c0.6-0.6,1.3-1.2,2.1-1.6c0.8-0.5,1.6-0.8,2.4-1c0.9-0.2,1.7-0.4,2.7-0.4c0.6,0,1.2,0.1,1.7,0.2s1.1,0.3,1.7,0.4
			c0.5,0.2,1,0.4,1.5,0.7c0.5,0.3,0.9,0.5,1.3,0.8c0.1,0.1,0.2,0.1,0.3,0.2s0.2,0.2,0.2,0.3c0.1,0.1,0.1,0.2,0.1,0.3
			c0,0.1,0,0.2-0.1,0.4l-1.1,1.5c-0.3,0.4-0.6,0.3-0.9,0c-0.3-0.3-0.6-0.6-1-0.8c-0.4-0.2-0.8-0.4-1.2-0.6c-0.4-0.2-0.8-0.3-1.3-0.4
			c-0.4-0.1-0.9-0.1-1.3-0.1c-0.9,0-1.8,0.2-2.6,0.6c-0.8,0.4-1.6,0.9-2.2,1.6s-1.2,1.5-1.6,2.3s-0.6,1.8-0.6,2.8
			c0,1,0.2,1.9,0.6,2.8s0.9,1.7,1.6,2.3c0.7,0.7,1.4,1.2,2.3,1.6c0.9,0.4,1.7,0.6,2.7,0.6c0.6,0,1.1-0.1,1.5-0.2s0.9-0.3,1.3-0.4
			c0.4-0.2,0.7-0.4,1-0.6S301.7,146.1,302,145.9z"/>
		<path class="st0" d="M322.5,148c-0.3,0.4-0.6,0.7-0.9,1c-0.3,0.3-0.7,0.5-1.1,0.7s-0.9,0.3-1.4,0.4c-0.5,0.1-1.1,0.2-1.8,0.2
			c-1.3,0-2.4-0.2-3.4-0.7c-1-0.4-1.8-1-2.4-1.8c-0.7-0.8-1.2-1.7-1.5-2.7c-0.3-1-0.5-2.1-0.5-3.3v-10.5c0-0.4,0.1-0.6,0.3-0.8
			s0.4-0.3,0.7-0.3h1.1c0.4,0,0.6,0.1,0.7,0.2s0.2,0.4,0.2,0.8v10.6c0,0.6,0.1,1.3,0.3,1.9c0.2,0.6,0.5,1.2,0.8,1.8
			c0.4,0.5,0.9,1,1.5,1.3c0.6,0.3,1.4,0.5,2.4,0.5c0.6,0,1.2-0.1,1.8-0.3c0.6-0.2,1.1-0.5,1.6-0.9s0.9-0.9,1.2-1.5
			c0.3-0.6,0.5-1.3,0.5-2.1V131c0-0.5,0.2-0.7,0.7-0.7h1.6c0.5,0,0.7,0.2,0.7,0.7v18.3c0,0.2-0.1,0.4-0.2,0.5
			c-0.1,0.1-0.3,0.2-0.5,0.2h-1.6c-0.2,0-0.4-0.1-0.5-0.2c-0.1-0.1-0.2-0.3-0.2-0.5V148z"/>
		<path class="st0" d="M330,146.5c-0.1-0.2-0.1-0.3-0.1-0.4s0-0.2,0-0.2c0-0.1,0.1-0.1,0.1-0.2c0.1-0.1,0.1-0.1,0.2-0.2l1.5-0.7
			c0.3-0.1,0.5-0.1,0.6,0s0.3,0.3,0.3,0.5c0.2,0.4,0.4,0.8,0.7,1.1c0.3,0.3,0.7,0.6,1.1,0.8s0.8,0.3,1.2,0.4c0.4,0.1,0.7,0.1,1,0.1
			c0.4,0,0.8-0.1,1.3-0.2c0.5-0.1,0.9-0.3,1.3-0.5c0.4-0.2,0.8-0.5,1.1-0.9c0.3-0.4,0.4-0.8,0.4-1.3c0-0.6-0.1-1-0.4-1.3
			s-0.6-0.6-1-0.8c-0.4-0.2-0.9-0.4-1.4-0.5c-0.5-0.1-1.1-0.3-1.6-0.4c-0.9-0.2-1.8-0.6-2.5-0.9s-1.3-0.8-1.9-1.2
			c-0.5-0.5-0.9-1-1.2-1.6s-0.4-1.3-0.4-2c0-0.8,0.2-1.6,0.5-2.3c0.3-0.7,0.8-1.3,1.3-1.8c0.6-0.5,1.3-0.9,2.1-1.1
			c0.8-0.3,1.7-0.4,2.7-0.4c0.8,0,1.5,0.1,2.1,0.2c0.6,0.1,1.1,0.4,1.5,0.6s0.9,0.6,1.2,1.1c0.4,0.4,0.8,0.9,1.2,1.4
			c0.1,0.2,0.2,0.4,0.2,0.5c0,0.2-0.1,0.3-0.3,0.4l-1.2,0.9c-0.2,0.1-0.4,0.2-0.5,0.1c-0.1-0.1-0.3-0.2-0.4-0.4
			c-0.2-0.3-0.5-0.5-0.7-0.8c-0.2-0.3-0.5-0.5-0.8-0.7c-0.3-0.2-0.6-0.4-1-0.5c-0.4-0.1-0.8-0.2-1.3-0.2c-0.5,0-0.9,0.1-1.3,0.2
			c-0.4,0.1-0.8,0.3-1.1,0.5c-0.3,0.2-0.6,0.5-0.8,0.9c-0.2,0.3-0.3,0.8-0.3,1.2c0,0.4,0.1,0.7,0.4,1s0.6,0.6,0.9,0.8
			c0.4,0.2,0.8,0.5,1.3,0.6s0.9,0.3,1.3,0.4c1,0.2,1.9,0.5,2.7,0.9c0.8,0.4,1.5,0.8,2.1,1.3c0.6,0.5,1,1.1,1.3,1.7
			c0.3,0.6,0.5,1.4,0.5,2.2c0,0.9-0.2,1.7-0.5,2.4c-0.4,0.7-0.9,1.3-1.5,1.8c-0.6,0.5-1.4,0.9-2.3,1.2s-1.8,0.4-2.9,0.4
			c-0.7,0-1.3-0.1-2-0.2s-1.3-0.4-1.9-0.8c-0.6-0.3-1.2-0.8-1.7-1.3S330.3,147.2,330,146.5z"/>
	</g>
	<g>
		<path class="st0" d="M120.6,165.7c-0.3,0-0.6,0-0.9,0.1c-0.3,0.1-0.5,0.2-0.8,0.3c-0.2,0.1-0.5,0.3-0.7,0.5s-0.4,0.4-0.5,0.7
			s-0.2,0.5-0.3,0.8c-0.1,0.3-0.1,0.6-0.1,0.8c0,0.3,0,0.6,0.1,0.9c0.1,0.3,0.2,0.5,0.3,0.8c0.1,0.2,0.3,0.5,0.5,0.7
			c0.2,0.2,0.4,0.4,0.7,0.5c0.2,0.1,0.5,0.2,0.8,0.3c0.3,0.1,0.6,0.1,0.8,0.1c0.4,0,0.7-0.1,1.1-0.2c0.3-0.1,0.6-0.3,0.8-0.4v-2
			c0-0.1,0.1-0.2,0.2-0.2h0.2c0.1,0,0.1,0,0.1,0c0,0,0,0.1,0,0.1v2.2c0,0,0,0.1,0,0.1s-0.1,0.1-0.1,0.1c-0.3,0.2-0.7,0.4-1.1,0.6
			c-0.4,0.1-0.8,0.2-1.3,0.2c-0.3,0-0.7,0-1-0.1s-0.6-0.2-0.9-0.4s-0.5-0.4-0.8-0.6c-0.2-0.2-0.4-0.5-0.6-0.8
			c-0.2-0.3-0.3-0.6-0.4-0.9c-0.1-0.3-0.1-0.7-0.1-1c0-0.3,0-0.7,0.1-1c0.1-0.3,0.2-0.6,0.4-0.9c0.2-0.3,0.4-0.5,0.6-0.8
			c0.2-0.2,0.5-0.4,0.8-0.6c0.3-0.2,0.6-0.3,0.9-0.4c0.3-0.1,0.7-0.1,1-0.1c0.5,0,1,0.1,1.5,0.3c0.1,0,0.2,0.1,0.3,0.1
			c0.1,0.1,0.2,0.1,0.3,0.2c0.1,0.1,0.2,0.1,0.3,0.2c0.1,0.1,0.1,0.1,0.1,0.2c0,0,0,0.1,0,0.1l-0.1,0.2c0,0,0,0-0.1,0.1
			c0,0,0,0-0.1,0c0,0-0.1,0-0.2-0.1c-0.3-0.2-0.6-0.4-0.9-0.5C121.3,165.8,121,165.7,120.6,165.7z"/>
		<path class="st0" d="M124.8,171.3c0.1-0.1,0.1-0.1,0.2-0.2c0,0,0.1-0.1,0.2-0.1c0,0,0.1,0,0.1,0c0,0,0,0,0.1,0.1
			c0.1,0.2,0.3,0.3,0.5,0.4s0.3,0.2,0.5,0.3c0.2,0.1,0.4,0.1,0.6,0.2c0.2,0,0.4,0.1,0.6,0.1c0.3,0,0.5,0,0.8-0.1
			c0.3-0.1,0.5-0.2,0.7-0.3c0.2-0.1,0.4-0.3,0.5-0.5c0.1-0.2,0.2-0.5,0.2-0.8c0-0.2,0-0.3-0.1-0.5c-0.1-0.1-0.2-0.2-0.3-0.3
			s-0.2-0.2-0.4-0.3c-0.1-0.1-0.3-0.1-0.5-0.2c-0.2-0.1-0.3-0.1-0.5-0.1c-0.2,0-0.3-0.1-0.5-0.1c-0.4-0.1-0.8-0.2-1.1-0.3
			c-0.3-0.1-0.6-0.3-0.8-0.4c-0.2-0.2-0.4-0.3-0.5-0.5c-0.1-0.2-0.1-0.4-0.1-0.7c0-0.3,0.1-0.6,0.2-0.8c0.1-0.2,0.3-0.5,0.5-0.6
			c0.2-0.2,0.5-0.3,0.8-0.4c0.3-0.1,0.7-0.1,1.1-0.1c0.4,0,0.8,0.1,1.2,0.2c0.4,0.1,0.7,0.4,1,0.7c0,0,0.1,0.1,0.1,0.1
			c0,0,0,0.1,0,0.1c0,0,0,0.1,0,0.1c0,0-0.1,0.1-0.1,0.1c0,0-0.1,0-0.1,0.1s0,0-0.1,0c0,0-0.1,0-0.2-0.1c-0.1-0.1-0.2-0.2-0.4-0.3
			s-0.3-0.2-0.4-0.2c-0.2-0.1-0.3-0.1-0.5-0.2c-0.2,0-0.4-0.1-0.6-0.1c-0.3,0-0.6,0-0.9,0.1c-0.2,0.1-0.4,0.2-0.6,0.3
			c-0.2,0.1-0.3,0.3-0.4,0.5c-0.1,0.2-0.1,0.4-0.1,0.5c0,0.2,0,0.3,0.1,0.4s0.1,0.2,0.2,0.3c0.1,0.1,0.2,0.2,0.3,0.2
			c0.1,0.1,0.3,0.1,0.4,0.2c0.1,0.1,0.3,0.1,0.5,0.1c0.2,0,0.3,0.1,0.5,0.1c0.2,0,0.4,0.1,0.6,0.1c0.2,0.1,0.4,0.1,0.6,0.2
			c0.2,0.1,0.4,0.2,0.6,0.3c0.2,0.1,0.3,0.2,0.5,0.3c0.1,0.1,0.2,0.3,0.3,0.5c0.1,0.2,0.1,0.4,0.1,0.6c0,0.4-0.1,0.7-0.2,1
			c-0.1,0.3-0.3,0.5-0.6,0.7s-0.6,0.3-0.9,0.4c-0.3,0.1-0.7,0.1-1.1,0.1c-0.3,0-0.5,0-0.7-0.1s-0.5-0.1-0.7-0.2s-0.4-0.2-0.6-0.4
			c-0.2-0.2-0.4-0.3-0.5-0.5c0,0,0-0.1-0.1-0.1S124.7,171.4,124.8,171.3C124.7,171.4,124.7,171.4,124.8,171.3z"/>
		<path class="st0" d="M131.7,172.5c0-0.1,0-0.1,0.1-0.2c0-0.1,0-0.1,0.1-0.2l2.8-6.7c0,0,0-0.1,0.1-0.1c0,0,0.1,0,0.1,0h0h0.2h0
			c0.1,0,0.1,0,0.1,0c0,0,0,0.1,0.1,0.1l2.9,7.1c0,0,0,0,0,0c0,0,0,0,0,0.1c0,0.1-0.1,0.1-0.2,0.1h-0.3c0,0,0,0,0,0c0,0,0,0,0,0
			c-0.1,0-0.1,0-0.2-0.1l-0.7-1.7H133c-0.1,0.3-0.3,0.6-0.4,0.9s-0.2,0.6-0.3,0.8c0,0.1-0.1,0.1-0.2,0.1c0,0,0,0,0,0h-0.3
			C131.7,172.7,131.6,172.6,131.7,172.5C131.6,172.5,131.6,172.5,131.7,172.5C131.6,172.5,131.6,172.5,131.7,172.5z M133.2,170.2
			h3.3l-1.6-4L133.2,170.2z"/>
		<path class="st0" d="M139.7,165.5c0-0.1,0-0.1,0.1-0.2c0,0,0.1-0.1,0.2-0.1h2.4c0.3,0,0.6,0.1,0.9,0.2c0.3,0.1,0.5,0.3,0.7,0.5
			c0.2,0.2,0.4,0.5,0.5,0.7c0.1,0.3,0.2,0.6,0.2,0.9c0,0.3-0.1,0.6-0.2,0.9s-0.3,0.5-0.5,0.7s-0.5,0.4-0.7,0.5
			c-0.3,0.1-0.6,0.2-0.9,0.2h-2v2.6c0,0.2-0.1,0.2-0.2,0.2H140c-0.1,0-0.2-0.1-0.2-0.2V165.5z M144.1,167.6c0-0.2,0-0.5-0.1-0.7
			c-0.1-0.2-0.2-0.4-0.4-0.6c-0.2-0.2-0.3-0.3-0.6-0.4c-0.2-0.1-0.4-0.1-0.7-0.1h-2v3.5h2c0.2,0,0.5,0,0.7-0.1
			c0.2-0.1,0.4-0.2,0.6-0.4c0.2-0.2,0.3-0.3,0.4-0.6C144,168,144.1,167.8,144.1,167.6z"/>
		<path class="st0" d="M155.8,171.7l0-0.4c-0.1,0.2-0.3,0.4-0.5,0.6c-0.2,0.2-0.4,0.3-0.6,0.5c-0.2,0.1-0.5,0.2-0.7,0.3
			c-0.3,0.1-0.5,0.1-0.8,0.1c-0.3,0-0.6,0-0.9-0.1c-0.3-0.1-0.5-0.2-0.8-0.3c-0.2-0.1-0.5-0.3-0.7-0.5c-0.2-0.2-0.4-0.4-0.5-0.7
			c-0.1-0.2-0.3-0.5-0.3-0.8c-0.1-0.3-0.1-0.6-0.1-0.9s0-0.6,0.1-0.9c0.1-0.3,0.2-0.5,0.3-0.8c0.1-0.2,0.3-0.5,0.5-0.7
			c0.2-0.2,0.4-0.4,0.7-0.5c0.2-0.1,0.5-0.3,0.8-0.3c0.3-0.1,0.6-0.1,0.9-0.1c0.3,0,0.5,0,0.8,0.1c0.3,0.1,0.5,0.2,0.7,0.3
			c0.2,0.1,0.4,0.3,0.6,0.5c0.2,0.2,0.4,0.4,0.5,0.6v-0.4v-0.9c0-0.1,0.1-0.2,0.2-0.2h0.3c0.1,0,0.2,0.1,0.2,0.2v6
			c0,0.1,0,0.1-0.1,0.1c0,0-0.1,0-0.1,0H156c-0.1,0-0.2-0.1-0.2-0.2V171.7z M155.8,169.5c0-0.4-0.1-0.7-0.2-1s-0.3-0.6-0.6-0.9
			c-0.2-0.2-0.5-0.4-0.9-0.6s-0.7-0.2-1-0.2h0c-0.4,0-0.7,0.1-1,0.2c-0.3,0.1-0.6,0.3-0.8,0.6c-0.2,0.2-0.4,0.5-0.6,0.9
			c-0.1,0.3-0.2,0.7-0.2,1c0,0.4,0.1,0.7,0.2,1c0.1,0.3,0.3,0.6,0.6,0.9c0.2,0.3,0.5,0.5,0.8,0.6s0.7,0.2,1,0.2
			c0.4,0,0.7-0.1,1.1-0.2c0.3-0.1,0.6-0.3,0.9-0.6c0.2-0.2,0.4-0.5,0.6-0.9S155.8,169.9,155.8,169.5z"/>
		<path class="st0" d="M158.5,166.5c0-0.1,0-0.1,0.1-0.1s0.1,0,0.1,0h0.2c0.1,0,0.1,0,0.1,0.1c0,0,0,0.1,0,0.1v0.7
			c0.1-0.2,0.3-0.4,0.5-0.5c0.2-0.1,0.4-0.2,0.6-0.3c0.2-0.1,0.4-0.1,0.6-0.2c0.2,0,0.4,0,0.5,0c0.4,0,0.7,0.1,1,0.2
			c0.3,0.1,0.6,0.3,0.8,0.6c0.2,0.2,0.4,0.5,0.5,0.8c0.1,0.3,0.2,0.7,0.2,1v3.6c0,0.1,0,0.1-0.1,0.2c0,0-0.1,0.1-0.1,0.1h-0.2
			c-0.1,0-0.1,0-0.2,0s0-0.1,0-0.2v-3.6c0-0.3-0.1-0.5-0.2-0.8c-0.1-0.2-0.2-0.5-0.4-0.7c-0.2-0.2-0.4-0.3-0.6-0.5
			c-0.2-0.1-0.5-0.2-0.8-0.2c-0.3,0-0.5,0-0.8,0.1s-0.5,0.2-0.7,0.4c-0.2,0.2-0.4,0.4-0.5,0.6c-0.1,0.2-0.2,0.5-0.2,0.8v3.8
			c0,0.1,0,0.2-0.1,0.2h-0.3c-0.1,0-0.2-0.1-0.2-0.2v-1.4c0,0,0,0,0-0.1V166.5z"/>
		<path class="st0" d="M172,172.5c0,0.1-0.1,0.2-0.2,0.2h-0.3c-0.1,0-0.2-0.1-0.2-0.2v-0.8l0-0.4c-0.1,0.1-0.1,0.2-0.2,0.3
			s-0.2,0.2-0.2,0.3c-0.3,0.3-0.6,0.5-1,0.6c-0.4,0.1-0.8,0.2-1.2,0.2c-0.3,0-0.6,0-0.9-0.1s-0.5-0.2-0.8-0.3
			c-0.2-0.1-0.5-0.3-0.7-0.5c-0.2-0.2-0.4-0.4-0.5-0.7c-0.1-0.2-0.3-0.5-0.3-0.8c-0.1-0.3-0.1-0.6-0.1-0.9s0-0.6,0.1-0.9
			c0.1-0.3,0.2-0.5,0.3-0.8c0.1-0.2,0.3-0.5,0.5-0.7c0.2-0.2,0.4-0.4,0.7-0.5c0.2-0.1,0.5-0.3,0.8-0.3s0.6-0.1,0.9-0.1
			c0.2,0,0.4,0,0.6,0.1s0.4,0.1,0.6,0.2c0.2,0.1,0.4,0.2,0.5,0.3c0.2,0.1,0.3,0.2,0.5,0.4c0.1,0.1,0.2,0.2,0.2,0.3s0.1,0.2,0.2,0.3
			v-3.2c0,0,0,0,0-0.1c0,0,0,0,0.1,0l0.4,0c0.1,0,0.1,0,0.1,0.1V172.5z M166.1,169.5c0,0.4,0.1,0.7,0.2,1c0.1,0.3,0.3,0.6,0.6,0.9
			c0.2,0.2,0.5,0.4,0.8,0.6c0.3,0.1,0.7,0.2,1,0.2c0.4,0,0.7-0.1,1-0.2s0.6-0.3,0.9-0.6c0.2-0.2,0.4-0.5,0.6-0.9
			c0.1-0.3,0.2-0.7,0.2-1.1c0-0.4-0.1-0.7-0.2-1c-0.1-0.3-0.3-0.6-0.6-0.9c-0.2-0.3-0.5-0.4-0.9-0.6c-0.3-0.1-0.7-0.2-1-0.2
			c-0.4,0-0.7,0.1-1,0.2c-0.3,0.1-0.6,0.3-0.9,0.6s-0.4,0.5-0.6,0.9S166.1,169.1,166.1,169.5z"/>
		<path class="st0" d="M183.5,166c0.1,0,0.1,0.1,0.1,0.2c0,0,0,0.1,0,0.1l-0.1,0.2c0,0,0,0-0.1,0.1c0,0,0,0-0.1,0
			c-0.1,0-0.1,0-0.2-0.1c-0.3-0.2-0.6-0.4-0.9-0.5s-0.7-0.2-1-0.2c-0.3,0-0.6,0-0.9,0.1c-0.3,0.1-0.5,0.2-0.8,0.3s-0.5,0.3-0.7,0.5
			c-0.2,0.2-0.4,0.4-0.5,0.7c-0.1,0.2-0.2,0.5-0.3,0.8c-0.1,0.3-0.1,0.5-0.1,0.8c0,0.3,0,0.6,0.1,0.8c0.1,0.3,0.2,0.5,0.3,0.8
			c0.1,0.2,0.3,0.5,0.5,0.7c0.2,0.2,0.4,0.4,0.7,0.5c0.2,0.1,0.5,0.3,0.8,0.3c0.3,0.1,0.5,0.1,0.8,0.1c0.2,0,0.3,0,0.5,0
			c0.2,0,0.4-0.1,0.5-0.1c0.2-0.1,0.3-0.1,0.5-0.2c0.2-0.1,0.3-0.2,0.5-0.3c0,0,0.1,0,0.1,0c0.1,0,0.1,0,0.2,0.1l0.1,0.1
			c0,0,0,0.1,0,0.1c0,0.1,0,0.1-0.1,0.2c-0.3,0.3-0.7,0.4-1.1,0.6c-0.4,0.1-0.8,0.2-1.3,0.2c-0.3,0-0.7,0-1-0.1
			c-0.3-0.1-0.6-0.2-0.9-0.4c-0.3-0.2-0.5-0.4-0.8-0.6c-0.2-0.2-0.4-0.5-0.6-0.8s-0.3-0.6-0.4-0.9c-0.1-0.3-0.1-0.7-0.1-1
			c0-0.3,0-0.7,0.1-1s0.2-0.6,0.4-0.9c0.2-0.3,0.4-0.5,0.6-0.8c0.2-0.2,0.5-0.4,0.8-0.6c0.3-0.2,0.6-0.3,0.9-0.4s0.7-0.1,1-0.1
			c0.4,0,0.8,0.1,1.3,0.2S183.1,165.7,183.5,166z"/>
		<path class="st0" d="M191.1,171.7l0-0.4c-0.1,0.2-0.3,0.4-0.5,0.6c-0.2,0.2-0.4,0.3-0.6,0.5c-0.2,0.1-0.5,0.2-0.7,0.3
			c-0.3,0.1-0.5,0.1-0.8,0.1c-0.3,0-0.6,0-0.9-0.1c-0.3-0.1-0.5-0.2-0.8-0.3c-0.2-0.1-0.5-0.3-0.7-0.5c-0.2-0.2-0.4-0.4-0.5-0.7
			c-0.1-0.2-0.3-0.5-0.3-0.8c-0.1-0.3-0.1-0.6-0.1-0.9s0-0.6,0.1-0.9c0.1-0.3,0.2-0.5,0.3-0.8c0.1-0.2,0.3-0.5,0.5-0.7
			c0.2-0.2,0.4-0.4,0.7-0.5c0.2-0.1,0.5-0.3,0.8-0.3c0.3-0.1,0.6-0.1,0.9-0.1c0.3,0,0.5,0,0.8,0.1c0.3,0.1,0.5,0.2,0.7,0.3
			c0.2,0.1,0.4,0.3,0.6,0.5c0.2,0.2,0.4,0.4,0.5,0.6v-0.4v-0.9c0-0.1,0.1-0.2,0.2-0.2h0.3c0.1,0,0.2,0.1,0.2,0.2v6
			c0,0.1,0,0.1-0.1,0.1c0,0-0.1,0-0.1,0h-0.2c-0.1,0-0.2-0.1-0.2-0.2V171.7z M191.2,169.5c0-0.4-0.1-0.7-0.2-1s-0.3-0.6-0.6-0.9
			c-0.2-0.2-0.5-0.4-0.9-0.6s-0.7-0.2-1-0.2h0c-0.4,0-0.7,0.1-1,0.2c-0.3,0.1-0.6,0.3-0.8,0.6c-0.2,0.2-0.4,0.5-0.6,0.9
			c-0.1,0.3-0.2,0.7-0.2,1c0,0.4,0.1,0.7,0.2,1c0.1,0.3,0.3,0.6,0.6,0.9c0.2,0.3,0.5,0.5,0.8,0.6s0.7,0.2,1,0.2
			c0.4,0,0.7-0.1,1.1-0.2c0.3-0.1,0.6-0.3,0.9-0.6c0.2-0.2,0.4-0.5,0.6-0.9S191.2,169.9,191.2,169.5z"/>
		<path class="st0" d="M193.8,166.5c0-0.1,0-0.1,0.1-0.1s0.1,0,0.1,0h0.2c0.1,0,0.1,0,0.1,0.1c0,0,0,0.1,0,0.1v0.7
			c0.1-0.2,0.3-0.4,0.5-0.5c0.2-0.1,0.4-0.2,0.6-0.3c0.2-0.1,0.4-0.1,0.6-0.2c0.2,0,0.4,0,0.5,0c0.4,0,0.7,0.1,1,0.2
			c0.3,0.1,0.6,0.3,0.8,0.6c0.2,0.2,0.4,0.5,0.5,0.8c0.1,0.3,0.2,0.7,0.2,1v3.6c0,0.1,0,0.1-0.1,0.2c0,0-0.1,0.1-0.1,0.1h-0.2
			c-0.1,0-0.1,0-0.2,0s0-0.1,0-0.2v-3.6c0-0.3-0.1-0.5-0.2-0.8c-0.1-0.2-0.2-0.5-0.4-0.7c-0.2-0.2-0.4-0.3-0.6-0.5
			c-0.2-0.1-0.5-0.2-0.8-0.2c-0.3,0-0.5,0-0.8,0.1s-0.5,0.2-0.7,0.4c-0.2,0.2-0.4,0.4-0.5,0.6c-0.1,0.2-0.2,0.5-0.2,0.8v3.8
			c0,0.1,0,0.2-0.1,0.2H194c-0.1,0-0.2-0.1-0.2-0.2v-1.4c0,0,0,0,0-0.1V166.5z"/>
		<path class="st0" d="M203.2,171.7c0.1-0.2,0.2-0.4,0.3-0.7c0.1-0.3,0.2-0.5,0.3-0.8c0.1-0.3,0.2-0.6,0.4-0.9s0.2-0.6,0.4-0.9
			c0.1-0.3,0.2-0.6,0.3-0.9c0.1-0.3,0.2-0.5,0.3-0.8c0-0.1,0.1-0.2,0.1-0.2c0-0.1,0.1-0.1,0.1-0.1c0,0,0.1,0,0.1,0
			c0.1,0,0.1,0,0.2,0c0.1,0,0.1,0,0.2,0c0,0,0,0.1,0,0.1c0,0,0,0,0,0.1s0,0,0,0l-2.3,5.7c0,0.1,0,0.1-0.1,0.2s0,0.1-0.1,0.2
			c0,0-0.1,0.1-0.1,0.1c-0.1,0-0.1,0-0.2,0c0,0-0.1,0-0.1,0c0,0,0-0.1,0-0.1l-2.5-6c0,0,0,0,0-0.1c0-0.1,0-0.1,0.1-0.1s0.1,0,0.2,0
			c0.1,0,0.1,0,0.2,0s0.1,0,0.1,0.1c0.1,0.2,0.2,0.5,0.3,0.8c0.1,0.3,0.2,0.6,0.4,0.9c0.1,0.3,0.3,0.6,0.4,1c0.1,0.3,0.3,0.6,0.4,1
			c0.1,0.3,0.3,0.6,0.4,0.9C203,171.3,203.1,171.5,203.2,171.7z"/>
		<path class="st0" d="M212.8,171.7l0-0.4c-0.1,0.2-0.3,0.4-0.5,0.6c-0.2,0.2-0.4,0.3-0.6,0.5c-0.2,0.1-0.5,0.2-0.7,0.3
			c-0.3,0.1-0.5,0.1-0.8,0.1c-0.3,0-0.6,0-0.9-0.1c-0.3-0.1-0.5-0.2-0.8-0.3c-0.2-0.1-0.5-0.3-0.7-0.5c-0.2-0.2-0.4-0.4-0.5-0.7
			c-0.1-0.2-0.3-0.5-0.3-0.8c-0.1-0.3-0.1-0.6-0.1-0.9s0-0.6,0.1-0.9c0.1-0.3,0.2-0.5,0.3-0.8c0.1-0.2,0.3-0.5,0.5-0.7
			c0.2-0.2,0.4-0.4,0.7-0.5c0.2-0.1,0.5-0.3,0.8-0.3c0.3-0.1,0.6-0.1,0.9-0.1c0.3,0,0.5,0,0.8,0.1c0.3,0.1,0.5,0.2,0.7,0.3
			c0.2,0.1,0.4,0.3,0.6,0.5c0.2,0.2,0.4,0.4,0.5,0.6v-0.4v-0.9c0-0.1,0.1-0.2,0.2-0.2h0.3c0.1,0,0.2,0.1,0.2,0.2v6
			c0,0.1,0,0.1-0.1,0.1c0,0-0.1,0-0.1,0H213c-0.1,0-0.2-0.1-0.2-0.2V171.7z M212.8,169.5c0-0.4-0.1-0.7-0.2-1s-0.3-0.6-0.6-0.9
			c-0.2-0.2-0.5-0.4-0.9-0.6s-0.7-0.2-1-0.2h0c-0.4,0-0.7,0.1-1,0.2c-0.3,0.1-0.6,0.3-0.8,0.6c-0.2,0.2-0.4,0.5-0.6,0.9
			c-0.1,0.3-0.2,0.7-0.2,1c0,0.4,0.1,0.7,0.2,1c0.1,0.3,0.3,0.6,0.6,0.9c0.2,0.3,0.5,0.5,0.8,0.6s0.7,0.2,1,0.2
			c0.4,0,0.7-0.1,1.1-0.2c0.3-0.1,0.6-0.3,0.9-0.6c0.2-0.2,0.4-0.5,0.6-0.9S212.8,169.9,212.8,169.5z"/>
		<path class="st0" d="M215,171.3C215,171.3,215,171.3,215,171.3C215,171.3,215,171.3,215,171.3c0-0.1,0-0.2,0-0.2
			c0,0,0.1,0,0.1-0.1l0.2-0.1c0,0,0,0,0,0c0,0,0,0,0,0c0,0,0.1,0,0.1,0c0,0,0,0.1,0.1,0.1c0,0,0,0.1,0,0.1c0,0,0,0.1,0.1,0.1
			c0.1,0.1,0.2,0.3,0.3,0.4c0.1,0.1,0.3,0.2,0.4,0.3c0.1,0.1,0.3,0.1,0.4,0.1c0.1,0,0.3,0,0.4,0c0.1,0,0.3,0,0.5-0.1
			s0.4-0.1,0.5-0.2c0.2-0.1,0.3-0.2,0.4-0.4c0.1-0.2,0.2-0.3,0.2-0.6c0-0.2-0.1-0.4-0.1-0.5c-0.1-0.1-0.2-0.3-0.4-0.4
			s-0.3-0.2-0.5-0.3c-0.2-0.1-0.4-0.1-0.6-0.2c-0.2-0.1-0.5-0.1-0.7-0.2c-0.2-0.1-0.4-0.2-0.6-0.4s-0.3-0.3-0.4-0.5
			c-0.1-0.2-0.2-0.4-0.2-0.6c0-0.3,0-0.5,0.1-0.7c0.1-0.2,0.2-0.4,0.4-0.5s0.4-0.3,0.6-0.3c0.2-0.1,0.5-0.1,0.8-0.1
			c0.2,0,0.5,0,0.7,0.1s0.4,0.1,0.5,0.3c0.2,0.1,0.3,0.3,0.4,0.4c0.1,0.2,0.2,0.3,0.3,0.5l0,0c0,0,0,0.1,0,0.1c0,0,0,0.1,0,0.1
			c0,0-0.1,0.1-0.1,0.1s-0.1,0-0.1,0.1c0,0-0.1,0-0.1,0c0,0-0.1,0-0.1,0c0,0,0,0-0.1-0.1c0,0,0-0.1,0-0.1c0,0,0-0.1-0.1-0.1
			c-0.1-0.2-0.3-0.4-0.6-0.6c-0.2-0.1-0.5-0.2-0.8-0.2c-0.2,0-0.4,0-0.5,0.1c-0.2,0-0.3,0.1-0.4,0.2c-0.1,0.1-0.2,0.2-0.3,0.4
			c-0.1,0.1-0.1,0.3-0.1,0.5c0,0.2,0,0.3,0.1,0.4s0.2,0.2,0.4,0.3c0.1,0.1,0.3,0.2,0.5,0.2c0.2,0.1,0.3,0.1,0.5,0.1c0,0,0,0,0,0
			c0,0,0,0,0,0c0.3,0.1,0.6,0.2,0.8,0.3c0.3,0.1,0.5,0.2,0.6,0.4c0.2,0.2,0.3,0.3,0.4,0.5s0.1,0.4,0.1,0.7c0,0.3-0.1,0.5-0.2,0.8
			c-0.1,0.2-0.3,0.4-0.5,0.6s-0.4,0.3-0.7,0.4c-0.3,0.1-0.5,0.1-0.8,0.1c-0.2,0-0.5,0-0.7-0.1c-0.2-0.1-0.4-0.2-0.6-0.3
			s-0.3-0.3-0.5-0.5C215.2,171.8,215.1,171.6,215,171.3z"/>
		<path class="st0" d="M224.8,164.6c0-0.1,0-0.1,0.1-0.1l0.4,0c0,0,0,0,0.1,0s0,0,0,0.1v3.2c0.1-0.1,0.2-0.2,0.2-0.3
			c0.1-0.1,0.1-0.2,0.2-0.3c0.1-0.1,0.3-0.3,0.5-0.4c0.2-0.1,0.3-0.2,0.5-0.3s0.4-0.1,0.6-0.2c0.2,0,0.4-0.1,0.6-0.1
			c0.3,0,0.6,0,0.9,0.1s0.5,0.2,0.8,0.3c0.2,0.1,0.5,0.3,0.7,0.5c0.2,0.2,0.4,0.4,0.5,0.7c0.1,0.2,0.3,0.5,0.3,0.8
			c0.1,0.3,0.1,0.6,0.1,0.9s0,0.6-0.1,0.9s-0.2,0.5-0.3,0.8c-0.1,0.2-0.3,0.5-0.5,0.7c-0.2,0.2-0.4,0.4-0.7,0.5
			c-0.2,0.1-0.5,0.3-0.8,0.3s-0.6,0.1-0.9,0.1c-0.4,0-0.8-0.1-1.2-0.2c-0.4-0.2-0.7-0.4-1-0.6c-0.1-0.1-0.2-0.2-0.2-0.3
			s-0.1-0.2-0.2-0.3l0,0.4v0.8c0,0.1-0.1,0.2-0.2,0.2h-0.3c-0.1,0-0.2-0.1-0.2-0.2V164.6z M230.7,169.5c0-0.4-0.1-0.7-0.2-1
			s-0.3-0.6-0.6-0.9s-0.5-0.4-0.9-0.6c-0.3-0.1-0.7-0.2-1-0.2c-0.4,0-0.7,0.1-1,0.2s-0.6,0.3-0.9,0.6s-0.4,0.5-0.6,0.9
			c-0.1,0.3-0.2,0.7-0.2,1c0,0.4,0.1,0.7,0.2,1.1c0.1,0.3,0.3,0.6,0.6,0.9s0.5,0.4,0.9,0.6s0.7,0.2,1,0.2c0.4,0,0.7-0.1,1-0.2
			c0.3-0.1,0.6-0.3,0.8-0.6c0.2-0.2,0.4-0.5,0.6-0.9C230.6,170.2,230.7,169.9,230.7,169.5z"/>
		<path class="st0" d="M238.9,171.7l0-0.4c-0.1,0.2-0.3,0.4-0.5,0.6c-0.2,0.2-0.4,0.3-0.6,0.5c-0.2,0.1-0.5,0.2-0.7,0.3
			c-0.3,0.1-0.5,0.1-0.8,0.1c-0.3,0-0.6,0-0.9-0.1c-0.3-0.1-0.5-0.2-0.8-0.3c-0.2-0.1-0.5-0.3-0.7-0.5c-0.2-0.2-0.4-0.4-0.5-0.7
			c-0.1-0.2-0.3-0.5-0.3-0.8c-0.1-0.3-0.1-0.6-0.1-0.9s0-0.6,0.1-0.9c0.1-0.3,0.2-0.5,0.3-0.8c0.1-0.2,0.3-0.5,0.5-0.7
			c0.2-0.2,0.4-0.4,0.7-0.5c0.2-0.1,0.5-0.3,0.8-0.3c0.3-0.1,0.6-0.1,0.9-0.1c0.3,0,0.5,0,0.8,0.1c0.3,0.1,0.5,0.2,0.7,0.3
			c0.2,0.1,0.4,0.3,0.6,0.5c0.2,0.2,0.4,0.4,0.5,0.6v-0.4v-0.9c0-0.1,0.1-0.2,0.2-0.2h0.3c0.1,0,0.2,0.1,0.2,0.2v6
			c0,0.1,0,0.1-0.1,0.1c0,0-0.1,0-0.1,0h-0.2c-0.1,0-0.2-0.1-0.2-0.2V171.7z M238.9,169.5c0-0.4-0.1-0.7-0.2-1s-0.3-0.6-0.6-0.9
			s-0.5-0.4-0.9-0.6c-0.3-0.1-0.7-0.2-1-0.2h0c-0.4,0-0.7,0.1-1,0.2s-0.6,0.3-0.8,0.6c-0.2,0.2-0.4,0.5-0.6,0.9
			c-0.1,0.3-0.2,0.7-0.2,1c0,0.4,0.1,0.7,0.2,1c0.1,0.3,0.3,0.6,0.6,0.9c0.2,0.3,0.5,0.5,0.8,0.6c0.3,0.1,0.7,0.2,1,0.2
			c0.4,0,0.7-0.1,1.1-0.2s0.6-0.3,0.9-0.6c0.2-0.2,0.4-0.5,0.6-0.9C238.8,170.2,238.9,169.9,238.9,169.5z"/>
		<path class="st0" d="M241.1,171.3C241.1,171.3,241.1,171.3,241.1,171.3C241.1,171.3,241.1,171.3,241.1,171.3c0-0.1,0-0.2,0-0.2
			c0,0,0.1,0,0.1-0.1l0.2-0.1c0,0,0,0,0,0s0,0,0,0c0,0,0,0,0.1,0c0,0,0,0.1,0.1,0.1c0,0,0,0.1,0,0.1c0,0,0,0.1,0.1,0.1
			c0.1,0.1,0.2,0.3,0.3,0.4s0.3,0.2,0.4,0.3c0.1,0.1,0.3,0.1,0.4,0.1c0.1,0,0.3,0,0.4,0c0.2,0,0.3,0,0.5-0.1s0.4-0.1,0.5-0.2
			s0.3-0.2,0.4-0.4c0.1-0.2,0.2-0.3,0.2-0.6c0-0.2,0-0.4-0.1-0.5c-0.1-0.1-0.2-0.3-0.4-0.4c-0.2-0.1-0.3-0.2-0.5-0.3
			c-0.2-0.1-0.4-0.1-0.6-0.2c-0.2-0.1-0.5-0.1-0.7-0.2c-0.2-0.1-0.4-0.2-0.6-0.4s-0.3-0.3-0.4-0.5c-0.1-0.2-0.2-0.4-0.2-0.6
			c0-0.3,0-0.5,0.1-0.7c0.1-0.2,0.2-0.4,0.4-0.5c0.2-0.2,0.4-0.3,0.6-0.3c0.2-0.1,0.5-0.1,0.8-0.1c0.2,0,0.5,0,0.7,0.1
			c0.2,0.1,0.4,0.1,0.5,0.3c0.2,0.1,0.3,0.3,0.4,0.4c0.1,0.2,0.2,0.3,0.3,0.5l0,0c0,0,0,0.1,0,0.1c0,0,0,0.1,0,0.1
			c0,0-0.1,0.1-0.1,0.1c0,0-0.1,0-0.1,0.1c0,0-0.1,0-0.1,0c0,0-0.1,0-0.1,0c0,0,0,0-0.1-0.1s0-0.1,0-0.1c0,0,0-0.1-0.1-0.1
			c-0.1-0.2-0.3-0.4-0.6-0.6c-0.2-0.1-0.5-0.2-0.9-0.2c-0.2,0-0.4,0-0.5,0.1c-0.2,0-0.3,0.1-0.4,0.2c-0.1,0.1-0.2,0.2-0.3,0.4
			c-0.1,0.1-0.1,0.3-0.1,0.5c0,0.2,0.1,0.3,0.2,0.4s0.2,0.2,0.4,0.3c0.1,0.1,0.3,0.2,0.5,0.2c0.2,0.1,0.3,0.1,0.5,0.1c0,0,0,0,0.1,0
			c0,0,0,0,0,0c0.3,0.1,0.6,0.2,0.8,0.3c0.3,0.1,0.5,0.2,0.6,0.4s0.3,0.3,0.4,0.5s0.1,0.4,0.1,0.7c0,0.3-0.1,0.5-0.2,0.8
			c-0.1,0.2-0.3,0.4-0.5,0.6s-0.4,0.3-0.7,0.4c-0.3,0.1-0.5,0.1-0.8,0.1c-0.2,0-0.5,0-0.7-0.1s-0.4-0.2-0.6-0.3s-0.3-0.3-0.5-0.5
			C241.2,171.8,241.1,171.6,241.1,171.3z"/>
		<path class="st0" d="M247.5,169.7c0,0.1,0,0.1,0,0.2c0,0.1,0,0.2,0,0.3c0.1,0.3,0.2,0.6,0.4,0.8c0.2,0.2,0.4,0.5,0.6,0.6
			c0.2,0.2,0.5,0.3,0.7,0.4c0.3,0.1,0.6,0.2,0.9,0.2c0.2,0,0.3,0,0.5,0c0.2,0,0.3-0.1,0.4-0.1c0.1,0,0.3-0.1,0.4-0.2
			s0.2-0.1,0.3-0.2c0,0,0.1,0,0.1-0.1c0,0,0.1-0.1,0.1-0.1c0,0,0.1,0,0.1-0.1s0.1,0,0.1,0c0,0,0.1,0,0.1,0.1
			c0.1,0.1,0.1,0.1,0.1,0.2c0,0,0,0.1,0,0.1c0,0,0,0,0,0c0,0,0,0,0,0c0,0-0.1,0.1-0.1,0.1c-0.1,0-0.1,0.1-0.2,0.1
			c-0.3,0.2-0.6,0.3-0.9,0.5s-0.7,0.2-1,0.2c-0.5,0-0.9-0.1-1.3-0.3c-0.4-0.2-0.7-0.4-1-0.7c-0.3-0.3-0.5-0.6-0.7-1
			s-0.3-0.8-0.3-1.3c0-0.3,0-0.6,0.1-0.9c0.1-0.3,0.2-0.5,0.3-0.8c0.1-0.2,0.3-0.5,0.5-0.7c0.2-0.2,0.4-0.4,0.7-0.5
			c0.2-0.1,0.5-0.3,0.8-0.3c0.3-0.1,0.6-0.1,0.9-0.1c0.3,0,0.6,0,0.8,0.1s0.5,0.2,0.8,0.3c0.2,0.1,0.5,0.3,0.7,0.5s0.4,0.4,0.5,0.7
			s0.3,0.5,0.3,0.8s0.1,0.6,0.1,0.9v0c0,0,0,0,0,0s0,0,0,0c0,0.1-0.1,0.2-0.2,0.2H247.5z M249.5,166.9c-0.3,0.1-0.5,0.2-0.7,0.3
			s-0.4,0.3-0.6,0.5c-0.2,0.2-0.3,0.4-0.4,0.7s-0.2,0.5-0.2,0.8h5.3c0-0.3-0.1-0.6-0.3-0.9c-0.2-0.3-0.4-0.5-0.6-0.7
			c-0.2-0.2-0.5-0.4-0.8-0.5s-0.6-0.2-1-0.2c-0.1,0-0.2,0-0.3,0C249.7,166.8,249.6,166.9,249.5,166.9z"/>
		<path class="st0" d="M261.6,172.5c0,0.1-0.1,0.2-0.2,0.2h-0.3c-0.1,0-0.2-0.1-0.2-0.2v-0.8l0-0.4c-0.1,0.1-0.1,0.2-0.2,0.3
			c-0.1,0.1-0.2,0.2-0.2,0.3c-0.3,0.3-0.6,0.5-1,0.6c-0.4,0.1-0.8,0.2-1.2,0.2c-0.3,0-0.6,0-0.9-0.1s-0.5-0.2-0.8-0.3
			c-0.2-0.1-0.5-0.3-0.7-0.5c-0.2-0.2-0.4-0.4-0.5-0.7c-0.1-0.2-0.3-0.5-0.3-0.8s-0.1-0.6-0.1-0.9s0-0.6,0.1-0.9
			c0.1-0.3,0.2-0.5,0.3-0.8c0.1-0.2,0.3-0.5,0.5-0.7c0.2-0.2,0.4-0.4,0.7-0.5c0.2-0.1,0.5-0.3,0.8-0.3s0.6-0.1,0.9-0.1
			c0.2,0,0.4,0,0.6,0.1s0.4,0.1,0.6,0.2s0.4,0.2,0.5,0.3c0.2,0.1,0.3,0.2,0.5,0.4c0.1,0.1,0.2,0.2,0.2,0.3c0.1,0.1,0.1,0.2,0.2,0.3
			v-3.2c0,0,0,0,0-0.1s0,0,0.1,0l0.4,0c0.1,0,0.1,0,0.1,0.1V172.5z M255.7,169.5c0,0.4,0.1,0.7,0.2,1c0.1,0.3,0.3,0.6,0.6,0.9
			c0.2,0.2,0.5,0.4,0.8,0.6c0.3,0.1,0.7,0.2,1,0.2c0.4,0,0.7-0.1,1-0.2s0.6-0.3,0.9-0.6c0.2-0.2,0.4-0.5,0.6-0.9s0.2-0.7,0.2-1.1
			c0-0.4-0.1-0.7-0.2-1s-0.3-0.6-0.6-0.9s-0.5-0.4-0.9-0.6c-0.3-0.1-0.7-0.2-1-0.2s-0.7,0.1-1,0.2c-0.3,0.1-0.6,0.3-0.9,0.6
			c-0.2,0.3-0.4,0.5-0.6,0.9S255.7,169.1,255.7,169.5z"/>
		<path class="st0" d="M269.6,166.8c-0.2,0-0.5,0-0.7,0.1c-0.2,0.1-0.4,0.2-0.6,0.3s-0.3,0.3-0.4,0.5s-0.2,0.4-0.2,0.7v2.5
			c0,0,0,0,0,0c0,0,0,0,0,0v1.4c0,0.1-0.1,0.2-0.2,0.2h-0.3c-0.1,0-0.2-0.1-0.2-0.2v-6c0-0.1,0-0.1,0.1-0.1c0,0,0.1,0,0.1,0h0.2
			c0.1,0,0.1,0,0.1,0.1c0,0,0,0.1,0,0.1v0.8c0.1-0.2,0.2-0.3,0.4-0.4c0.1-0.1,0.3-0.2,0.4-0.3c0.2-0.1,0.3-0.2,0.5-0.2
			s0.4-0.1,0.6-0.1c0.5,0,0.9,0.1,1.3,0.4c0.4,0.2,0.6,0.6,0.8,1c0.1-0.2,0.2-0.4,0.4-0.6s0.3-0.3,0.5-0.4c0.2-0.1,0.4-0.2,0.6-0.2
			c0.2-0.1,0.4-0.1,0.7-0.1c0.3,0,0.6,0.1,0.9,0.2c0.3,0.1,0.5,0.3,0.7,0.4c0.2,0.2,0.4,0.4,0.5,0.7c0.1,0.3,0.2,0.5,0.2,0.8
			c0,0.1,0,0.2,0,0.3c0,0.1,0,0.2,0,0.4v3.4c0,0.1,0,0.1-0.1,0.2c0,0-0.1,0.1-0.1,0.1h-0.2c-0.1,0-0.1,0-0.2,0c0,0,0-0.1,0-0.2v-3.8
			c0-0.2-0.1-0.5-0.1-0.7c-0.1-0.2-0.2-0.4-0.4-0.6c-0.2-0.2-0.3-0.3-0.6-0.4s-0.5-0.2-0.8-0.2c-0.2,0-0.4,0-0.6,0.1
			s-0.4,0.2-0.5,0.3c-0.2,0.1-0.3,0.3-0.4,0.5c-0.1,0.2-0.2,0.4-0.2,0.6c0,0.2-0.1,0.5-0.1,0.7v3.4c0,0.1,0,0.1-0.1,0.2
			c0,0-0.1,0.1-0.1,0.1h-0.2c-0.1,0-0.1,0-0.2,0s0-0.1,0-0.2V169c0-0.1,0-0.2,0-0.3c0-0.1,0-0.2,0-0.3c0-0.2-0.1-0.4-0.2-0.6
			c-0.1-0.2-0.2-0.3-0.4-0.5c-0.2-0.1-0.3-0.2-0.5-0.3C270.1,166.9,269.9,166.8,269.6,166.8z"/>
		<path class="st0" d="M277.9,169.5c0-0.3,0-0.6,0.1-0.9c0.1-0.3,0.2-0.5,0.3-0.8c0.1-0.2,0.3-0.5,0.5-0.7c0.2-0.2,0.4-0.4,0.7-0.5
			c0.2-0.1,0.5-0.3,0.8-0.3s0.6-0.1,0.9-0.1s0.6,0,0.9,0.1s0.5,0.2,0.8,0.3c0.2,0.1,0.5,0.3,0.7,0.5c0.2,0.2,0.4,0.4,0.5,0.7
			c0.1,0.2,0.3,0.5,0.3,0.8c0.1,0.3,0.1,0.6,0.1,0.9s0,0.6-0.1,0.9s-0.2,0.5-0.3,0.8c-0.1,0.2-0.3,0.5-0.5,0.7
			c-0.2,0.2-0.4,0.4-0.7,0.5c-0.2,0.1-0.5,0.3-0.8,0.3s-0.6,0.1-0.9,0.1s-0.6,0-0.9-0.1s-0.5-0.2-0.8-0.3c-0.2-0.1-0.5-0.3-0.7-0.5
			s-0.4-0.4-0.5-0.7s-0.3-0.5-0.3-0.8S277.9,169.8,277.9,169.5z M278.5,169.5c0,0.2,0,0.5,0.1,0.7c0.1,0.2,0.2,0.4,0.3,0.6
			c0.1,0.2,0.3,0.4,0.4,0.6c0.2,0.2,0.3,0.3,0.5,0.4c0.2,0.1,0.4,0.2,0.6,0.3c0.2,0.1,0.5,0.1,0.7,0.1c0.4,0,0.7-0.1,1-0.2
			s0.6-0.3,0.9-0.6c0.2-0.2,0.4-0.5,0.6-0.9s0.2-0.7,0.2-1.1c0-0.4-0.1-0.7-0.2-1c-0.1-0.3-0.3-0.6-0.6-0.9
			c-0.2-0.3-0.5-0.4-0.8-0.6c-0.3-0.1-0.7-0.2-1-0.2s-0.7,0.1-1,0.2c-0.3,0.1-0.6,0.3-0.9,0.6c-0.2,0.3-0.4,0.5-0.6,0.9
			C278.6,168.8,278.5,169.1,278.5,169.5z"/>
		<path class="st0" d="M290.8,172l0-0.3c-0.1,0.2-0.2,0.3-0.4,0.5c-0.1,0.1-0.3,0.3-0.5,0.3s-0.4,0.2-0.6,0.2
			c-0.2,0.1-0.4,0.1-0.6,0.1c-0.4,0-0.7-0.1-1.1-0.2s-0.6-0.3-0.8-0.6c-0.2-0.2-0.4-0.5-0.5-0.8c-0.1-0.3-0.2-0.7-0.2-1v-3.6
			c0-0.1,0-0.1,0.1-0.2c0,0,0.1-0.1,0.1-0.1h0.2c0.1,0,0.1,0,0.2,0c0,0,0,0.1,0,0.2v3.6c0,0.3,0.1,0.5,0.2,0.8
			c0.1,0.2,0.2,0.5,0.4,0.7c0.2,0.2,0.4,0.3,0.7,0.5c0.3,0.1,0.5,0.2,0.9,0.2c0.3,0,0.5,0,0.8-0.1c0.2-0.1,0.5-0.2,0.6-0.4
			s0.3-0.4,0.5-0.6s0.2-0.5,0.2-0.8v-3.7c0-0.1,0.1-0.2,0.2-0.2h0.3c0.1,0,0.2,0.1,0.2,0.2v6c0,0.1-0.1,0.2-0.2,0.2H291
			c-0.1,0-0.2-0.1-0.2-0.2V172z"/>
		<path class="st0" d="M293.1,171.3C293,171.3,293,171.3,293.1,171.3C293,171.3,293,171.3,293.1,171.3c0-0.1,0-0.2,0-0.2
			c0,0,0.1,0,0.1-0.1l0.2-0.1c0,0,0,0,0,0s0,0,0,0c0,0,0,0,0.1,0c0,0,0,0.1,0.1,0.1c0,0,0,0.1,0,0.1c0,0,0,0.1,0.1,0.1
			c0.1,0.1,0.2,0.3,0.3,0.4s0.3,0.2,0.4,0.3c0.1,0.1,0.3,0.1,0.4,0.1c0.1,0,0.3,0,0.4,0c0.2,0,0.3,0,0.5-0.1s0.4-0.1,0.5-0.2
			s0.3-0.2,0.4-0.4c0.1-0.2,0.2-0.3,0.2-0.6c0-0.2,0-0.4-0.1-0.5c-0.1-0.1-0.2-0.3-0.4-0.4c-0.2-0.1-0.3-0.2-0.5-0.3
			c-0.2-0.1-0.4-0.1-0.6-0.2c-0.2-0.1-0.5-0.1-0.7-0.2c-0.2-0.1-0.4-0.2-0.6-0.4s-0.3-0.3-0.4-0.5c-0.1-0.2-0.2-0.4-0.2-0.6
			c0-0.3,0-0.5,0.1-0.7c0.1-0.2,0.2-0.4,0.4-0.5c0.2-0.2,0.4-0.3,0.6-0.3c0.2-0.1,0.5-0.1,0.8-0.1c0.2,0,0.5,0,0.7,0.1
			c0.2,0.1,0.4,0.1,0.5,0.3c0.2,0.1,0.3,0.3,0.4,0.4c0.1,0.2,0.2,0.3,0.3,0.5l0,0c0,0,0,0.1,0,0.1c0,0,0,0.1,0,0.1
			c0,0-0.1,0.1-0.1,0.1c0,0-0.1,0-0.1,0.1c0,0-0.1,0-0.1,0c0,0-0.1,0-0.1,0c0,0,0,0-0.1-0.1s0-0.1,0-0.1c0,0,0-0.1-0.1-0.1
			c-0.1-0.2-0.3-0.4-0.6-0.6c-0.2-0.1-0.5-0.2-0.9-0.2c-0.2,0-0.4,0-0.5,0.1c-0.2,0-0.3,0.1-0.4,0.2c-0.1,0.1-0.2,0.2-0.3,0.4
			c-0.1,0.1-0.1,0.3-0.1,0.5c0,0.2,0.1,0.3,0.2,0.4s0.2,0.2,0.4,0.3c0.1,0.1,0.3,0.2,0.5,0.2c0.2,0.1,0.3,0.1,0.5,0.1c0,0,0,0,0.1,0
			c0,0,0,0,0,0c0.3,0.1,0.6,0.2,0.8,0.3c0.3,0.1,0.5,0.2,0.6,0.4s0.3,0.3,0.4,0.5s0.1,0.4,0.1,0.7c0,0.3-0.1,0.5-0.2,0.8
			c-0.1,0.2-0.3,0.4-0.5,0.6s-0.4,0.3-0.7,0.4c-0.3,0.1-0.5,0.1-0.8,0.1c-0.2,0-0.5,0-0.7-0.1s-0.4-0.2-0.6-0.3s-0.3-0.3-0.5-0.5
			C293.2,171.8,293.1,171.6,293.1,171.3z"/>
		<path class="st0" d="M299.5,169.7c0,0.1,0,0.1,0,0.2c0,0.1,0,0.2,0,0.3c0.1,0.3,0.2,0.6,0.4,0.8c0.2,0.2,0.4,0.5,0.6,0.6
			c0.2,0.2,0.5,0.3,0.7,0.4c0.3,0.1,0.6,0.2,0.9,0.2c0.2,0,0.3,0,0.5,0c0.2,0,0.3-0.1,0.4-0.1c0.1,0,0.3-0.1,0.4-0.2
			s0.2-0.1,0.3-0.2c0,0,0.1,0,0.1-0.1c0,0,0.1-0.1,0.1-0.1c0,0,0.1,0,0.1-0.1s0.1,0,0.1,0c0,0,0.1,0,0.1,0.1
			c0.1,0.1,0.1,0.1,0.1,0.2c0,0,0,0.1,0,0.1c0,0,0,0,0,0c0,0,0,0,0,0c0,0-0.1,0.1-0.1,0.1c-0.1,0-0.1,0.1-0.2,0.1
			c-0.3,0.2-0.6,0.3-0.9,0.5s-0.7,0.2-1,0.2c-0.5,0-0.9-0.1-1.3-0.3c-0.4-0.2-0.7-0.4-1-0.7c-0.3-0.3-0.5-0.6-0.7-1
			s-0.3-0.8-0.3-1.3c0-0.3,0-0.6,0.1-0.9c0.1-0.3,0.2-0.5,0.3-0.8c0.1-0.2,0.3-0.5,0.5-0.7c0.2-0.2,0.4-0.4,0.7-0.5
			c0.2-0.1,0.5-0.3,0.8-0.3c0.3-0.1,0.6-0.1,0.9-0.1c0.3,0,0.6,0,0.8,0.1s0.5,0.2,0.8,0.3c0.2,0.1,0.5,0.3,0.7,0.5s0.4,0.4,0.5,0.7
			s0.3,0.5,0.3,0.8s0.1,0.6,0.1,0.9v0c0,0,0,0,0,0s0,0,0,0c0,0.1-0.1,0.2-0.2,0.2H299.5z M301.4,166.9c-0.3,0.1-0.5,0.2-0.7,0.3
			s-0.4,0.3-0.6,0.5c-0.2,0.2-0.3,0.4-0.4,0.7s-0.2,0.5-0.2,0.8h5.3c0-0.3-0.1-0.6-0.3-0.9c-0.2-0.3-0.4-0.5-0.6-0.7
			c-0.2-0.2-0.5-0.4-0.8-0.5s-0.6-0.2-1-0.2c-0.1,0-0.2,0-0.3,0C301.7,166.8,301.6,166.9,301.4,166.9z"/>
		<path class="st0" d="M306.9,169.5c0-0.3,0-0.6,0.1-0.9c0.1-0.3,0.2-0.5,0.3-0.8c0.1-0.2,0.3-0.5,0.5-0.7c0.2-0.2,0.4-0.4,0.7-0.5
			c0.2-0.1,0.5-0.3,0.8-0.3s0.6-0.1,0.9-0.1s0.6,0,0.9,0.1s0.5,0.2,0.8,0.3c0.2,0.1,0.5,0.3,0.7,0.5c0.2,0.2,0.4,0.4,0.5,0.7
			c0.1,0.2,0.3,0.5,0.3,0.8c0.1,0.3,0.1,0.6,0.1,0.9s0,0.6-0.1,0.9s-0.2,0.5-0.3,0.8c-0.1,0.2-0.3,0.5-0.5,0.7
			c-0.2,0.2-0.4,0.4-0.7,0.5c-0.2,0.1-0.5,0.3-0.8,0.3s-0.6,0.1-0.9,0.1s-0.6,0-0.9-0.1s-0.5-0.2-0.8-0.3c-0.2-0.1-0.5-0.3-0.7-0.5
			s-0.4-0.4-0.5-0.7s-0.3-0.5-0.3-0.8S306.9,169.8,306.9,169.5z M307.5,169.5c0,0.2,0,0.5,0.1,0.7c0.1,0.2,0.2,0.4,0.3,0.6
			c0.1,0.2,0.3,0.4,0.4,0.6c0.2,0.2,0.3,0.3,0.5,0.4c0.2,0.1,0.4,0.2,0.6,0.3c0.2,0.1,0.5,0.1,0.7,0.1c0.4,0,0.7-0.1,1-0.2
			s0.6-0.3,0.9-0.6c0.2-0.2,0.4-0.5,0.6-0.9s0.2-0.7,0.2-1.1c0-0.4-0.1-0.7-0.2-1c-0.1-0.3-0.3-0.6-0.6-0.9
			c-0.2-0.3-0.5-0.4-0.8-0.6c-0.3-0.1-0.7-0.2-1-0.2s-0.7,0.1-1,0.2c-0.3,0.1-0.6,0.3-0.9,0.6c-0.2,0.3-0.4,0.5-0.6,0.9
			C307.6,168.8,307.5,169.1,307.5,169.5z"/>
		<path class="st0" d="M317.1,171.7c0.1-0.2,0.2-0.4,0.3-0.7c0.1-0.3,0.2-0.5,0.3-0.8s0.2-0.6,0.4-0.9s0.2-0.6,0.4-0.9
			s0.2-0.6,0.3-0.9c0.1-0.3,0.2-0.5,0.3-0.8c0-0.1,0.1-0.2,0.1-0.2s0.1-0.1,0.1-0.1c0,0,0.1,0,0.1,0s0.1,0,0.2,0c0.1,0,0.1,0,0.2,0
			c0,0,0,0.1,0,0.1c0,0,0,0,0,0.1c0,0,0,0,0,0l-2.3,5.7c0,0.1,0,0.1-0.1,0.2s0,0.1-0.1,0.2c0,0-0.1,0.1-0.1,0.1c-0.1,0-0.1,0-0.2,0
			c0,0-0.1,0-0.1,0c0,0,0-0.1,0-0.1l-2.5-6c0,0,0,0,0-0.1c0-0.1,0-0.1,0.1-0.1s0.1,0,0.2,0c0.1,0,0.1,0,0.2,0s0.1,0,0.1,0.1
			c0.1,0.2,0.2,0.5,0.3,0.8c0.1,0.3,0.2,0.6,0.4,0.9c0.1,0.3,0.3,0.6,0.4,1c0.1,0.3,0.3,0.6,0.4,1c0.1,0.3,0.3,0.6,0.4,0.9
			C316.8,171.3,317,171.5,317.1,171.7z"/>
		<path class="st0" d="M321.2,169.7c0,0.1,0,0.1,0,0.2c0,0.1,0,0.2,0,0.3c0.1,0.3,0.2,0.6,0.4,0.8c0.2,0.2,0.4,0.5,0.6,0.6
			c0.2,0.2,0.5,0.3,0.7,0.4c0.3,0.1,0.6,0.2,0.9,0.2c0.2,0,0.3,0,0.5,0c0.2,0,0.3-0.1,0.4-0.1c0.1,0,0.3-0.1,0.4-0.2
			s0.2-0.1,0.3-0.2c0,0,0.1,0,0.1-0.1c0,0,0.1-0.1,0.1-0.1c0,0,0.1,0,0.1-0.1s0.1,0,0.1,0c0,0,0.1,0,0.1,0.1
			c0.1,0.1,0.1,0.1,0.1,0.2c0,0,0,0.1,0,0.1c0,0,0,0,0,0c0,0,0,0,0,0c0,0-0.1,0.1-0.1,0.1c-0.1,0-0.1,0.1-0.2,0.1
			c-0.3,0.2-0.6,0.3-0.9,0.5s-0.7,0.2-1,0.2c-0.5,0-0.9-0.1-1.3-0.3c-0.4-0.2-0.7-0.4-1-0.7c-0.3-0.3-0.5-0.6-0.7-1
			s-0.3-0.8-0.3-1.3c0-0.3,0-0.6,0.1-0.9c0.1-0.3,0.2-0.5,0.3-0.8c0.1-0.2,0.3-0.5,0.5-0.7c0.2-0.2,0.4-0.4,0.7-0.5
			c0.2-0.1,0.5-0.3,0.8-0.3c0.3-0.1,0.6-0.1,0.9-0.1c0.3,0,0.6,0,0.8,0.1s0.5,0.2,0.8,0.3c0.2,0.1,0.5,0.3,0.7,0.5s0.4,0.4,0.5,0.7
			s0.3,0.5,0.3,0.8s0.1,0.6,0.1,0.9v0c0,0,0,0,0,0s0,0,0,0c0,0.1-0.1,0.2-0.2,0.2H321.2z M323.2,166.9c-0.3,0.1-0.5,0.2-0.7,0.3
			s-0.4,0.3-0.6,0.5c-0.2,0.2-0.3,0.4-0.4,0.7s-0.2,0.5-0.2,0.8h5.3c0-0.3-0.1-0.6-0.3-0.9c-0.2-0.3-0.4-0.5-0.6-0.7
			c-0.2-0.2-0.5-0.4-0.8-0.5s-0.6-0.2-1-0.2c-0.1,0-0.2,0-0.3,0C323.5,166.8,323.3,166.9,323.2,166.9z"/>
		<path class="st0" d="M332.9,167.4C332.9,167.4,332.9,167.4,332.9,167.4c-0.1,0-0.1,0-0.1,0c0,0-0.1,0-0.1-0.1
			c-0.1,0-0.2-0.1-0.2-0.2c-0.1-0.1-0.2-0.1-0.3-0.1c-0.1,0-0.2-0.1-0.3-0.1c-0.1,0-0.2,0-0.3,0c-0.3,0-0.5,0-0.7,0.1
			s-0.4,0.2-0.6,0.4c-0.2,0.2-0.3,0.4-0.4,0.6c-0.1,0.2-0.1,0.5-0.1,0.8v3.7c0,0.1-0.1,0.2-0.2,0.2h-0.3c-0.1,0-0.2-0.1-0.2-0.2v-6
			c0-0.1,0-0.1,0.1-0.1c0,0,0,0,0,0c0,0,0,0,0,0h0.2c0.1,0,0.1,0,0.1,0.1c0,0,0,0.1,0,0.1v0.8c0.1-0.1,0.2-0.3,0.3-0.4
			c0.1-0.1,0.2-0.2,0.4-0.3s0.3-0.2,0.5-0.2c0.2-0.1,0.4-0.1,0.6-0.1c0.2,0,0.3,0,0.5,0s0.3,0.1,0.4,0.1c0.1,0,0.3,0.1,0.4,0.2
			c0.1,0.1,0.2,0.2,0.4,0.3c0,0,0.1,0.1,0.1,0.1c0,0,0,0.1,0,0.1c0,0,0,0.1-0.1,0.1S333,167.3,332.9,167.4z"/>
	</g>
</g>
</svg>
