<?xml version="1.0" encoding="utf-8"?>
<!-- Generator: Adobe Illustrator 21.1.0, SVG Export Plug-In . SVG Version: 6.00 Build 0)  -->
<svg version="1.1" id="Ebene_1" xmlns="http://www.w3.org/2000/svg" xmlns:xlink="http://www.w3.org/1999/xlink" x="0px" y="0px"
	 viewBox="0 0 396 240" style="enable-background:new 0 0 396 240;" xml:space="preserve">
<style type="text/css">
	.st0{fill:#353535;}
</style>
<g>
	<g>
		<path class="st0" d="M259.5,82.4c-0.3-0.4-7.4-9.3-19.6-18.3c-7.2-5.3-14.8-9.5-22.4-12.5c9.6,8.2,15.7,20.4,15.7,34
			c0,13.6-6.1,25.8-15.7,34c7.6-3,15.1-7.2,22.4-12.5c12.2-9,19.3-17.9,19.6-18.3l2.5-3.2L259.5,82.4z"/>
		<path class="st0" d="M159.7,51.6c-7.6,3-15.1,7.2-22.4,12.5c-12.2,9-19.3,17.9-19.6,18.3l-2.5,3.2l2.5,3.2
			c0.3,0.4,7.4,9.3,19.6,18.3c7.2,5.3,14.8,9.5,22.4,12.5c-9.6-8.2-15.7-20.4-15.7-34C144,72,150.1,59.8,159.7,51.6z"/>
		<g>
			<path class="st0" d="M194.9,102.3c0,0-0.2,2.9-1.4,4c-0.6,0.6-1.5,0.7-2.1,0.1c-0.7-0.7-1-1.4-1.2-2.5c-0.1-1.1-0.1-2.4,0.1-3.5
				c0.7-4.2,1.6-7.5,0-11.7c-0.3,2.8-1,5.9-2.8,8.3c-1.1,1.5-2.5,2.5-4.1,2.2c-2.2-0.5-3.5-2.9-4.5-4.6c-2.4,2.9-3.4,9.3-2.5,13.1
				c0.4,1.8,1,3.3,1.7,4.5c3.1,1.2,6.5,1.8,10.1,1.8c2.3,0,4.6-0.3,6.8-0.8C196.8,107.6,194.9,102.3,194.9,102.3z"/>
			<path class="st0" d="M188.2,56.5c-15.9,0-28.8,12.9-28.8,28.8c0,10.2,5.3,19.2,13.3,24.3c-4.2-5.4-4.7-12.8,0-19.3
				c3-4.2,7.5-7.3,10.1-13.2c1,3.6-0.2,7.1-1.3,10.6c-0.5,1.7-1.1,3.7,1.2,4.3c2.2,0.7,3-1.6,3.3-3.1c0.3-1.7-0.2-8.2-0.5-11.4
				c-0.3-3-0.8-6.1-0.5-9.1c0.4-3.4,1.9-6.5,5.3-8.9c-3.9,7-0.5,16.4,1.1,18.6c1.1,1.6,2.6,4.7,4.1,3.7c0.4-0.3,0.4-1.2,0.4-1.6
				c-0.1-3.2-1-6.4-2.1-9.4c3.4,3.9,5.2,5.9,7.8,9.7c2.2,3.1,3.8,7.7,4.8,11.4c1.8,6.9-0.1,13.9-4.4,18.6c8.9-4.9,15-14.4,15-25.3
				C217,69.3,204.1,56.5,188.2,56.5z"/>
		</g>
	</g>
	<g>
		<path class="st0" d="M78.7,165.1c-0.1,0.2-0.2,0.4-0.2,0.5c-0.1,0.1-0.1,0.3-0.2,0.4c-0.1,0.1-0.2,0.2-0.3,0.2s-0.3,0.1-0.5,0.1
			h-3.1c-0.8,0-1.2-0.4-1.2-1.2V142c0-0.2,0-0.3,0.1-0.5c0.1-0.1,0.2-0.3,0.3-0.4s0.2-0.2,0.4-0.2s0.3-0.1,0.4-0.1h3.5
			c0.4,0,0.7,0.1,0.9,0.3c0.2,0.2,0.3,0.5,0.3,0.8v7.1c0.3-0.3,0.6-0.6,0.9-0.9c0.3-0.3,0.7-0.6,1.1-0.9s0.8-0.5,1.3-0.6
			s1-0.2,1.5-0.2c1.4,0,2.7,0.3,3.9,0.8c1.2,0.5,2.2,1.2,3.1,2.2c0.9,0.9,1.5,2,2,3.2c0.5,1.2,0.7,2.6,0.7,4c0,1.4-0.2,2.8-0.7,4
			s-1.1,2.3-2,3.2c-0.9,0.9-1.9,1.6-3.1,2.2c-1.2,0.5-2.5,0.8-3.9,0.8c-0.5,0-1-0.1-1.5-0.3s-0.9-0.4-1.3-0.7
			c-0.4-0.3-0.8-0.6-1.1-0.9c-0.3-0.3-0.7-0.6-0.9-0.9L78.7,165.1z M88,156.5c0-0.7-0.1-1.3-0.3-1.9s-0.5-1.1-0.9-1.6
			s-0.9-0.8-1.4-1.1c-0.5-0.3-1.2-0.4-1.8-0.4s-1.3,0.1-1.9,0.4c-0.6,0.3-1.1,0.6-1.5,1.1s-0.8,1-1,1.6c-0.3,0.6-0.4,1.2-0.4,1.9
			v0.2c0,0.7,0.2,1.3,0.4,1.8s0.6,1.1,1,1.5s0.9,0.7,1.5,1c0.6,0.2,1.2,0.4,1.9,0.4c0.7,0,1.3-0.1,1.8-0.4c0.5-0.3,1-0.6,1.4-1
			c0.4-0.4,0.7-0.9,0.9-1.5C87.9,157.8,88,157.2,88,156.5z"/>
		<path class="st0" d="M98.3,142c0-0.3,0.1-0.6,0.2-0.8c0.2-0.2,0.4-0.3,0.9-0.3h3.8c0.1,0,0.2,0,0.3,0.1s0.2,0.1,0.3,0.2
			c0.1,0.1,0.2,0.2,0.2,0.4c0.1,0.1,0.1,0.3,0.1,0.5v23.2c0,0.4-0.1,0.7-0.3,0.9c-0.2,0.2-0.5,0.3-0.9,0.3h-3.6
			c-0.4,0-0.7-0.1-0.9-0.3c-0.2-0.2-0.2-0.5-0.2-0.9V142z"/>
		<path class="st0" d="M129.7,165.2c0,0.2,0,0.3-0.1,0.5s-0.2,0.3-0.3,0.4c-0.1,0.1-0.2,0.2-0.4,0.2c-0.2,0-0.3,0-0.4,0h-3.1
			c-0.2,0-0.4,0-0.5-0.1s-0.2-0.1-0.3-0.2s-0.2-0.2-0.2-0.4c-0.1-0.1-0.1-0.3-0.2-0.5l-0.4-1.2c-0.3,0.3-0.6,0.6-0.9,0.9
			s-0.7,0.6-1.1,0.9s-0.8,0.5-1.3,0.7c-0.5,0.2-1,0.3-1.5,0.3c-0.9,0-1.8-0.1-2.7-0.4s-1.7-0.6-2.4-1c-0.7-0.4-1.4-1-2-1.6
			c-0.6-0.6-1.1-1.3-1.6-2.1c-0.4-0.8-0.8-1.6-1-2.4s-0.4-1.8-0.4-2.7c0-1.4,0.3-2.8,0.8-4c0.5-1.2,1.2-2.3,2.2-3.2
			c0.9-0.9,2-1.6,3.2-2.2c1.2-0.5,2.5-0.8,4-0.8c0.6,0,1.2,0.1,1.8,0.3c0.5,0.2,1,0.4,1.5,0.8c0.4,0.3,0.8,0.7,1.2,1.1
			s0.7,0.8,1,1.2l0.6-1.9c0.1-0.3,0.2-0.5,0.3-0.6c0.1-0.2,0.1-0.3,0.2-0.4c0.1-0.1,0.2-0.1,0.3-0.2c0.1,0,0.3,0,0.5,0h2.3
			c0.1,0,0.2,0,0.4,0s0.3,0.1,0.4,0.2c0.1,0.1,0.2,0.2,0.3,0.4s0.1,0.3,0.1,0.5V165.2z M114.4,156.5c0,0.7,0.1,1.3,0.3,1.9
			c0.2,0.6,0.5,1.1,0.9,1.5c0.4,0.4,0.9,0.8,1.4,1c0.6,0.3,1.2,0.4,1.8,0.4c0.7,0,1.3-0.1,1.9-0.4c0.6-0.3,1.1-0.6,1.5-1
			c0.4-0.4,0.8-0.9,1-1.5c0.2-0.6,0.4-1.2,0.4-1.9c0-0.7-0.1-1.3-0.4-1.9s-0.6-1.1-1-1.6c-0.4-0.5-1-0.8-1.5-1.1s-1.2-0.4-1.9-0.4
			c-0.7,0-1.3,0.1-1.8,0.4s-1,0.6-1.4,1.1c-0.4,0.5-0.7,1-0.9,1.6C114.5,155.2,114.4,155.8,114.4,156.5z"/>
		<path class="st0" d="M134.7,147.8c0-0.4,0.1-0.7,0.3-0.9c0.2-0.2,0.5-0.3,0.9-0.3H149c0.3,0,0.6,0.1,0.9,0.3
			c0.3,0.2,0.4,0.5,0.4,0.9v2.7c0,0.1,0,0.2,0,0.3s-0.1,0.2-0.2,0.4l-8.5,10.1h7.7c0.4,0,0.7,0.1,0.9,0.3c0.2,0.2,0.3,0.5,0.3,1v2.4
			c0,0.2,0,0.3-0.1,0.5s-0.1,0.3-0.2,0.4c-0.1,0.1-0.2,0.2-0.4,0.3c-0.1,0.1-0.3,0.1-0.5,0.1h-13.7c-0.2,0-0.3,0-0.5-0.1
			c-0.1-0.1-0.3-0.2-0.4-0.3c-0.1-0.1-0.2-0.3-0.3-0.4s-0.1-0.3-0.1-0.5v-2.1c0-0.1,0-0.3,0-0.4c0-0.1,0.1-0.3,0.2-0.4
			c0.7-0.8,1.4-1.6,2.2-2.5c0.8-0.9,1.5-1.8,2.3-2.7c0.8-0.9,1.5-1.8,2.3-2.7c0.8-0.9,1.5-1.7,2.2-2.5H136c-0.4,0-0.7-0.1-0.9-0.3
			c-0.2-0.2-0.3-0.5-0.3-1V147.8z"/>
		<path class="st0" d="M155,140c0-0.4,0.1-0.7,0.3-0.9c0.2-0.2,0.5-0.3,0.9-0.3h3.6c0.4,0,0.7,0.1,0.9,0.3c0.2,0.2,0.3,0.5,0.3,0.9
			v3c0,0.1,0,0.3-0.1,0.4s-0.1,0.3-0.2,0.4c-0.1,0.1-0.2,0.2-0.4,0.3c-0.1,0.1-0.3,0.1-0.5,0.1h-3.6c-0.8,0-1.1-0.4-1.1-1.3V140z
			 M155,147.9c0-0.3,0.1-0.6,0.3-0.9c0.2-0.2,0.5-0.4,0.9-0.4h3.5c0.1,0,0.3,0,0.4,0.1c0.1,0.1,0.3,0.1,0.4,0.2s0.2,0.2,0.3,0.4
			c0.1,0.1,0.1,0.3,0.1,0.5v17.3c0,0.4-0.1,0.7-0.3,0.9c-0.2,0.2-0.5,0.3-0.9,0.3h-3.5c-0.8,0-1.1-0.4-1.1-1.2V147.9z"/>
		<path class="st0" d="M166.6,146.9c0.1-0.1,0.3-0.2,0.4-0.2c0.1,0,0.3,0,0.4,0h2.3c0.2,0,0.3,0,0.5,0.1c0.1,0.1,0.2,0.2,0.3,0.3
			s0.2,0.2,0.2,0.4s0.1,0.3,0.2,0.4l0.5,2c0.2-0.3,0.4-0.7,0.7-1.1c0.3-0.4,0.7-0.8,1.1-1.1s1-0.7,1.6-0.9c0.6-0.2,1.4-0.4,2.2-0.4
			c1.2,0,2.2,0.2,3.2,0.7c1,0.5,1.8,1.1,2.5,1.9s1.2,1.7,1.6,2.7s0.6,2.2,0.6,3.4v10.2c0,0.4-0.1,0.7-0.3,0.9
			c-0.2,0.2-0.4,0.3-0.8,0.3h-3.6c-0.4,0-0.8-0.1-0.9-0.2s-0.2-0.4-0.2-0.9v-10.1c0-0.4-0.1-0.9-0.3-1.3s-0.5-0.7-0.8-1.1
			c-0.3-0.3-0.7-0.5-1.1-0.7c-0.4-0.2-0.8-0.3-1.3-0.3c-0.4,0-0.8,0.1-1.1,0.2c-0.4,0.2-0.7,0.4-1.1,0.7c-0.3,0.3-0.6,0.6-0.8,1
			c-0.2,0.4-0.3,0.8-0.4,1.3v10.1c0,0.2,0,0.4-0.1,0.5s-0.2,0.3-0.3,0.4c-0.1,0.1-0.3,0.1-0.4,0.2c-0.1,0-0.3,0-0.4,0h-3.5
			c-0.4,0-0.8-0.1-1-0.3c-0.2-0.2-0.3-0.5-0.3-0.9v-17.3c0-0.2,0-0.4,0.1-0.5C166.4,147.1,166.5,147,166.6,146.9L166.6,146.9z"/>
		<path class="st0" d="M204.1,165.7c0.1-0.4,0.2-0.8,0.2-1.2c0-0.5,0-0.9,0-1.4c-0.3,0.3-0.6,0.7-0.9,1c-0.3,0.4-0.7,0.7-1,1
			c-0.4,0.3-0.8,0.6-1.3,0.8s-1,0.3-1.7,0.3c-1.4,0-2.7-0.2-3.9-0.7c-1.2-0.5-2.2-1.1-3.1-2c-0.9-0.9-1.5-1.9-2-3.1
			c-0.5-1.2-0.7-2.5-0.7-3.9c0-1.4,0.2-2.7,0.7-4c0.5-1.2,1.2-2.3,2-3.2c0.9-0.9,1.9-1.6,3.1-2.2s2.5-0.8,3.9-0.8
			c0.6,0,1.2,0.1,1.7,0.3c0.5,0.2,1,0.4,1.4,0.8c0.4,0.3,0.8,0.7,1.1,1c0.3,0.4,0.7,0.8,1,1.2l0.6-1.8c0.1-0.2,0.1-0.3,0.2-0.5
			s0.1-0.3,0.2-0.4c0.1-0.1,0.2-0.2,0.3-0.2s0.3-0.1,0.5-0.1h2.3c0.1,0,0.2,0,0.4,0c0.2,0,0.3,0.1,0.4,0.2c0.1,0.1,0.3,0.2,0.3,0.4
			c0.1,0.1,0.1,0.3,0.1,0.5v15.8c0,1.6-0.3,3-0.8,4.3c-0.5,1.3-1.2,2.3-2.2,3.2c-0.9,0.9-2,1.5-3.2,2c-1.3,0.5-2.6,0.7-4,0.7
			c-0.6,0-1.2,0-1.8-0.1c-0.6-0.1-1.3-0.2-1.9-0.4s-1.3-0.4-1.8-0.8c-0.6-0.3-1.1-0.7-1.6-1.1c-0.1-0.1-0.2-0.2-0.3-0.3
			c-0.1-0.1-0.2-0.3-0.2-0.4c0-0.2,0-0.3,0-0.5c0-0.2,0.1-0.4,0.3-0.6l1.5-2c0.3-0.3,0.5-0.4,0.8-0.5c0.2,0,0.5,0.1,0.9,0.4
			c0.3,0.2,0.6,0.4,0.9,0.6c0.3,0.1,0.7,0.3,1,0.4s0.7,0.1,1.1,0.2c0.3,0,0.7,0,0.9,0c0.5,0,1-0.1,1.5-0.2c0.5-0.1,1-0.3,1.4-0.6
			c0.4-0.2,0.8-0.5,1.2-0.9C203.7,166.5,204,166.1,204.1,165.7z M195.2,156.4c0,0.7,0.1,1.3,0.3,1.9c0.2,0.6,0.5,1.1,0.9,1.5
			s0.9,0.8,1.4,1c0.6,0.2,1.2,0.4,1.8,0.4c0.7,0,1.3-0.1,1.9-0.3c0.6-0.2,1.1-0.6,1.5-1c0.4-0.4,0.8-0.9,1-1.5
			c0.3-0.6,0.4-1.2,0.4-1.8v-0.5c0-0.6-0.2-1.2-0.4-1.8c-0.3-0.6-0.6-1.1-1-1.5s-0.9-0.8-1.5-1c-0.6-0.3-1.2-0.4-1.9-0.4
			c-0.7,0-1.3,0.1-1.8,0.4s-1,0.6-1.4,1.1s-0.7,1-0.9,1.6C195.3,155.2,195.2,155.8,195.2,156.4z"/>
		<path class="st0" d="M221.6,139.4c0.2,0,0.4,0.1,0.6,0.2c0.1,0.1,0.2,0.3,0.2,0.6v1.3c0,0.2-0.1,0.4-0.2,0.5
			c-0.1,0.2-0.3,0.2-0.5,0.2c-0.2,0-0.4,0-0.6,0.1c-0.2,0.1-0.5,0.2-0.7,0.4c-0.2,0.2-0.4,0.5-0.6,0.8c-0.2,0.3-0.2,0.7-0.2,1.2v3.2
			h2.1c0.2,0,0.4,0.1,0.6,0.2c0.1,0.1,0.2,0.3,0.2,0.6v1c0,0.3-0.1,0.5-0.2,0.7c-0.1,0.2-0.3,0.2-0.6,0.2h-2.1v14.7
			c0,0.3-0.1,0.5-0.3,0.6c-0.2,0.1-0.4,0.2-0.6,0.2h-1.4c-0.3,0-0.4-0.1-0.6-0.2c-0.1-0.2-0.2-0.4-0.2-0.6v-14.7h-1.5
			c-0.2,0-0.4-0.1-0.6-0.2s-0.2-0.4-0.2-0.7v-1c0-0.3,0.1-0.5,0.2-0.6s0.3-0.2,0.6-0.2h1.5v-3.3c0-0.7,0.1-1.4,0.3-2.1
			s0.6-1.2,1-1.7c0.4-0.5,1-0.9,1.6-1.2C220.1,139.5,220.8,139.4,221.6,139.4z"/>
		<path class="st0" d="M226.5,156.5c0-1.4,0.3-2.7,0.8-3.9c0.5-1.2,1.3-2.3,2.2-3.2c0.9-0.9,2-1.7,3.2-2.2c1.2-0.5,2.5-0.8,3.9-0.8
			c0.9,0,1.8,0.1,2.7,0.4c0.9,0.2,1.7,0.6,2.4,1c0.8,0.4,1.4,1,2.1,1.6c0.6,0.6,1.2,1.3,1.6,2.1c0.4,0.8,0.8,1.6,1,2.4
			c0.2,0.9,0.4,1.8,0.4,2.7s-0.1,1.8-0.4,2.7c-0.2,0.9-0.6,1.7-1,2.4c-0.5,0.8-1,1.4-1.6,2.1c-0.6,0.6-1.3,1.2-2.1,1.6
			s-1.6,0.8-2.4,1c-0.9,0.2-1.8,0.4-2.7,0.4c-0.9,0-1.8-0.1-2.7-0.4c-0.9-0.2-1.7-0.6-2.4-1c-0.8-0.4-1.4-1-2.1-1.6
			c-0.6-0.6-1.2-1.3-1.6-2.1c-0.4-0.8-0.8-1.6-1-2.4C226.6,158.3,226.5,157.5,226.5,156.5z M229.6,156.5c0,1,0.2,1.9,0.6,2.8
			s0.9,1.6,1.5,2.3s1.4,1.2,2.2,1.6s1.8,0.6,2.8,0.6c1,0,1.9-0.2,2.7-0.6s1.6-0.9,2.2-1.6c0.6-0.7,1.1-1.4,1.5-2.3
			c0.4-0.9,0.5-1.8,0.5-2.8c0-1-0.2-1.9-0.5-2.8c-0.4-0.9-0.9-1.7-1.5-2.3c-0.6-0.7-1.4-1.2-2.2-1.6c-0.9-0.4-1.8-0.6-2.7-0.6
			c-1,0-1.9,0.2-2.8,0.6c-0.9,0.4-1.6,0.9-2.2,1.6s-1.1,1.5-1.5,2.3S229.6,155.6,229.6,156.5z"/>
		<path class="st0" d="M266,161.9c0.1-0.1,0.2-0.1,0.2-0.2s0.2-0.1,0.3-0.1c0.1,0,0.2,0,0.3,0c0.1,0,0.2,0.1,0.3,0.2
			c0.2,0.3,0.4,0.5,0.5,0.7c0.1,0.2,0.2,0.3,0.3,0.4c0.1,0.1,0.1,0.2,0.2,0.2c0.1,0.1,0.1,0.2,0.1,0.2c0,0.1,0,0.2,0,0.3
			c0,0.1-0.1,0.2-0.2,0.3c-0.1,0.1-0.2,0.3-0.4,0.4c-0.4,0.4-0.9,0.7-1.4,1c-0.5,0.3-1,0.5-1.5,0.7c-0.5,0.2-1.1,0.4-1.7,0.5
			c-0.6,0.1-1.2,0.2-1.9,0.2c-0.9,0-1.8-0.1-2.7-0.4c-0.9-0.2-1.7-0.6-2.4-1c-0.8-0.5-1.5-1-2.1-1.6s-1.2-1.3-1.6-2.1
			c-0.5-0.8-0.8-1.6-1.1-2.4c-0.2-0.9-0.4-1.8-0.4-2.7s0.1-1.8,0.4-2.7c0.2-0.9,0.6-1.7,1.1-2.4c0.5-0.8,1-1.4,1.6-2.1
			c0.6-0.6,1.3-1.2,2.1-1.6c0.8-0.5,1.6-0.8,2.4-1c0.9-0.2,1.7-0.4,2.7-0.4c0.6,0,1.2,0.1,1.7,0.2s1.1,0.3,1.7,0.4
			c0.5,0.2,1,0.4,1.5,0.7c0.5,0.3,0.9,0.5,1.3,0.8c0.1,0.1,0.2,0.1,0.3,0.2s0.2,0.2,0.2,0.3c0.1,0.1,0.1,0.2,0.1,0.3
			c0,0.1,0,0.2-0.1,0.4l-1.1,1.5c-0.3,0.4-0.6,0.3-0.9,0c-0.3-0.3-0.6-0.6-1-0.8c-0.4-0.2-0.8-0.4-1.2-0.6c-0.4-0.2-0.8-0.3-1.3-0.4
			c-0.4-0.1-0.9-0.1-1.3-0.1c-0.9,0-1.8,0.2-2.6,0.6c-0.8,0.4-1.6,0.9-2.2,1.6s-1.2,1.5-1.6,2.3s-0.6,1.8-0.6,2.8
			c0,1,0.2,1.9,0.6,2.8s0.9,1.7,1.6,2.3c0.7,0.7,1.4,1.2,2.3,1.6c0.9,0.4,1.7,0.6,2.7,0.6c0.6,0,1.1-0.1,1.5-0.2s0.9-0.3,1.3-0.4
			c0.4-0.2,0.7-0.4,1-0.6S265.7,162.1,266,161.9z"/>
		<path class="st0" d="M286.5,164c-0.3,0.4-0.6,0.7-0.9,1c-0.3,0.3-0.7,0.5-1.1,0.7s-0.9,0.3-1.4,0.4c-0.5,0.1-1.1,0.2-1.8,0.2
			c-1.3,0-2.4-0.2-3.4-0.7c-1-0.4-1.8-1-2.4-1.8c-0.7-0.8-1.2-1.7-1.5-2.7c-0.3-1-0.5-2.1-0.5-3.3v-10.5c0-0.4,0.1-0.6,0.3-0.8
			s0.4-0.3,0.7-0.3h1.1c0.4,0,0.6,0.1,0.7,0.2s0.2,0.4,0.2,0.8v10.6c0,0.6,0.1,1.3,0.3,1.9c0.2,0.6,0.5,1.2,0.8,1.8
			c0.4,0.5,0.9,1,1.5,1.3c0.6,0.3,1.4,0.5,2.4,0.5c0.6,0,1.2-0.1,1.8-0.3c0.6-0.2,1.1-0.5,1.6-0.9s0.9-0.9,1.2-1.5
			c0.3-0.6,0.5-1.3,0.5-2.1V147c0-0.5,0.2-0.7,0.7-0.7h1.6c0.5,0,0.7,0.2,0.7,0.7v18.3c0,0.2-0.1,0.4-0.2,0.5
			c-0.1,0.1-0.3,0.2-0.5,0.2h-1.6c-0.2,0-0.4-0.1-0.5-0.2c-0.1-0.1-0.2-0.3-0.2-0.5V164z"/>
		<path class="st0" d="M294,162.5c-0.1-0.2-0.1-0.3-0.1-0.4s0-0.2,0-0.2c0-0.1,0.1-0.1,0.1-0.2c0.1-0.1,0.1-0.1,0.2-0.2l1.5-0.7
			c0.3-0.1,0.5-0.1,0.6,0s0.3,0.3,0.3,0.5c0.2,0.4,0.4,0.8,0.7,1.1c0.3,0.3,0.7,0.6,1.1,0.8s0.8,0.3,1.2,0.4c0.4,0.1,0.7,0.1,1,0.1
			c0.4,0,0.8-0.1,1.3-0.2c0.5-0.1,0.9-0.3,1.3-0.5c0.4-0.2,0.8-0.5,1.1-0.9c0.3-0.4,0.4-0.8,0.4-1.3c0-0.6-0.1-1-0.4-1.3
			s-0.6-0.6-1-0.8c-0.4-0.2-0.9-0.4-1.4-0.5c-0.5-0.1-1.1-0.3-1.6-0.4c-0.9-0.2-1.8-0.6-2.5-0.9s-1.3-0.8-1.9-1.2
			c-0.5-0.5-0.9-1-1.2-1.6s-0.4-1.3-0.4-2c0-0.8,0.2-1.6,0.5-2.3c0.3-0.7,0.8-1.3,1.3-1.8c0.6-0.5,1.3-0.9,2.1-1.1
			c0.8-0.3,1.7-0.4,2.7-0.4c0.8,0,1.5,0.1,2.1,0.2c0.6,0.1,1.1,0.4,1.5,0.6s0.9,0.6,1.2,1.1c0.4,0.4,0.8,0.9,1.2,1.4
			c0.1,0.2,0.2,0.4,0.2,0.5c0,0.2-0.1,0.3-0.3,0.4l-1.2,0.9c-0.2,0.1-0.4,0.2-0.5,0.1c-0.1-0.1-0.3-0.2-0.4-0.4
			c-0.2-0.3-0.5-0.5-0.7-0.8c-0.2-0.3-0.5-0.5-0.8-0.7c-0.3-0.2-0.6-0.4-1-0.5c-0.4-0.1-0.8-0.2-1.3-0.2c-0.5,0-0.9,0.1-1.3,0.2
			c-0.4,0.1-0.8,0.3-1.1,0.5c-0.3,0.2-0.6,0.5-0.8,0.9c-0.2,0.3-0.3,0.8-0.3,1.2c0,0.4,0.1,0.7,0.4,1s0.6,0.6,0.9,0.8
			c0.4,0.2,0.8,0.5,1.3,0.6s0.9,0.3,1.3,0.4c1,0.2,1.9,0.5,2.7,0.9c0.8,0.4,1.5,0.8,2.1,1.3c0.6,0.5,1,1.1,1.3,1.7
			c0.3,0.6,0.5,1.4,0.5,2.2c0,0.9-0.2,1.7-0.5,2.4c-0.4,0.7-0.9,1.3-1.5,1.8c-0.6,0.5-1.4,0.9-2.3,1.2s-1.8,0.4-2.9,0.4
			c-0.7,0-1.3-0.1-2-0.2s-1.3-0.4-1.9-0.8c-0.6-0.3-1.2-0.8-1.7-1.3S294.3,163.2,294,162.5z"/>
	</g>
	<g>
		<path class="st0" d="M84.6,181.7c-0.3,0-0.6,0-0.9,0.1c-0.3,0.1-0.5,0.2-0.8,0.3c-0.2,0.1-0.5,0.3-0.7,0.5s-0.4,0.4-0.5,0.7
			s-0.2,0.5-0.3,0.8c-0.1,0.3-0.1,0.6-0.1,0.8c0,0.3,0,0.6,0.1,0.9c0.1,0.3,0.2,0.5,0.3,0.8c0.1,0.2,0.3,0.5,0.5,0.7
			c0.2,0.2,0.4,0.4,0.7,0.5c0.2,0.1,0.5,0.2,0.8,0.3c0.3,0.1,0.6,0.1,0.8,0.1c0.4,0,0.7-0.1,1.1-0.2c0.3-0.1,0.6-0.3,0.8-0.4v-2
			c0-0.1,0.1-0.2,0.2-0.2h0.2c0.1,0,0.1,0,0.1,0c0,0,0,0.1,0,0.1v2.2c0,0,0,0.1,0,0.1S87,187.9,87,188c-0.3,0.2-0.7,0.4-1.1,0.6
			c-0.4,0.1-0.8,0.2-1.3,0.2c-0.3,0-0.7,0-1-0.1s-0.6-0.2-0.9-0.4s-0.5-0.4-0.8-0.6c-0.2-0.2-0.4-0.5-0.6-0.8
			c-0.2-0.3-0.3-0.6-0.4-0.9c-0.1-0.3-0.1-0.7-0.1-1c0-0.3,0-0.7,0.1-1c0.1-0.3,0.2-0.6,0.4-0.9c0.2-0.3,0.4-0.5,0.6-0.8
			c0.2-0.2,0.5-0.4,0.8-0.6c0.3-0.2,0.6-0.3,0.9-0.4c0.3-0.1,0.7-0.1,1-0.1c0.5,0,1,0.1,1.5,0.3c0.1,0,0.2,0.1,0.3,0.1
			c0.1,0.1,0.2,0.1,0.3,0.2c0.1,0.1,0.2,0.1,0.3,0.2c0.1,0.1,0.1,0.1,0.1,0.2c0,0,0,0.1,0,0.1l-0.1,0.2c0,0,0,0-0.1,0.1
			c0,0,0,0-0.1,0c0,0-0.1,0-0.2-0.1c-0.3-0.2-0.6-0.4-0.9-0.5C85.3,181.8,85,181.7,84.6,181.7z"/>
		<path class="st0" d="M88.8,187.3c0.1-0.1,0.1-0.1,0.2-0.2c0,0,0.1-0.1,0.2-0.1c0,0,0.1,0,0.1,0c0,0,0,0,0.1,0.1
			c0.1,0.2,0.3,0.3,0.5,0.4s0.3,0.2,0.5,0.3c0.2,0.1,0.4,0.1,0.6,0.2c0.2,0,0.4,0.1,0.6,0.1c0.3,0,0.5,0,0.8-0.1
			c0.3-0.1,0.5-0.2,0.7-0.3c0.2-0.1,0.4-0.3,0.5-0.5c0.1-0.2,0.2-0.5,0.2-0.8c0-0.2,0-0.3-0.1-0.5c-0.1-0.1-0.2-0.2-0.3-0.3
			s-0.2-0.2-0.4-0.3c-0.1-0.1-0.3-0.1-0.5-0.2c-0.2-0.1-0.3-0.1-0.5-0.1c-0.2,0-0.3-0.1-0.5-0.1c-0.4-0.1-0.8-0.2-1.1-0.3
			c-0.3-0.1-0.6-0.3-0.8-0.4c-0.2-0.2-0.4-0.3-0.5-0.5c-0.1-0.2-0.1-0.4-0.1-0.7c0-0.3,0.1-0.6,0.2-0.8c0.1-0.2,0.3-0.5,0.5-0.6
			c0.2-0.2,0.5-0.3,0.8-0.4c0.3-0.1,0.7-0.1,1.1-0.1c0.4,0,0.8,0.1,1.2,0.2c0.4,0.1,0.7,0.4,1,0.7c0,0,0.1,0.1,0.1,0.1
			c0,0,0,0.1,0,0.1c0,0,0,0.1,0,0.1c0,0-0.1,0.1-0.1,0.1c0,0-0.1,0-0.1,0.1s0,0-0.1,0c0,0-0.1,0-0.2-0.1c-0.1-0.1-0.2-0.2-0.4-0.3
			s-0.3-0.2-0.4-0.2c-0.2-0.1-0.3-0.1-0.5-0.2c-0.2,0-0.4-0.1-0.6-0.1c-0.3,0-0.6,0-0.9,0.1c-0.2,0.1-0.4,0.2-0.6,0.3
			c-0.2,0.1-0.3,0.3-0.4,0.5c-0.1,0.2-0.1,0.4-0.1,0.5c0,0.2,0,0.3,0.1,0.4s0.1,0.2,0.2,0.3c0.1,0.1,0.2,0.2,0.3,0.2
			c0.1,0.1,0.3,0.1,0.4,0.2c0.1,0.1,0.3,0.1,0.5,0.1c0.2,0,0.3,0.1,0.5,0.1c0.2,0,0.4,0.1,0.6,0.1c0.2,0.1,0.4,0.1,0.6,0.2
			c0.2,0.1,0.4,0.2,0.6,0.3c0.2,0.1,0.3,0.2,0.5,0.3c0.1,0.1,0.2,0.3,0.3,0.5c0.1,0.2,0.1,0.4,0.1,0.6c0,0.4-0.1,0.7-0.2,1
			c-0.1,0.3-0.3,0.5-0.6,0.7s-0.6,0.3-0.9,0.4c-0.3,0.1-0.7,0.1-1.1,0.1c-0.3,0-0.5,0-0.7-0.1s-0.5-0.1-0.7-0.2s-0.4-0.2-0.6-0.4
			c-0.2-0.2-0.4-0.3-0.5-0.5c0,0,0-0.1-0.1-0.1S88.7,187.4,88.8,187.3C88.7,187.4,88.7,187.4,88.8,187.3z"/>
		<path class="st0" d="M95.7,188.5c0-0.1,0-0.1,0.1-0.2c0-0.1,0-0.1,0.1-0.2l2.8-6.7c0,0,0-0.1,0.1-0.1c0,0,0.1,0,0.1,0h0H99h0
			c0.1,0,0.1,0,0.1,0c0,0,0,0.1,0.1,0.1l2.9,7.1c0,0,0,0,0,0c0,0,0,0,0,0.1c0,0.1-0.1,0.1-0.2,0.1h-0.3c0,0,0,0,0,0c0,0,0,0,0,0
			c-0.1,0-0.1,0-0.2-0.1l-0.7-1.7H97c-0.1,0.3-0.3,0.6-0.4,0.9s-0.2,0.6-0.3,0.8c0,0.1-0.1,0.1-0.2,0.1c0,0,0,0,0,0h-0.3
			C95.7,188.7,95.6,188.6,95.7,188.5C95.6,188.5,95.6,188.5,95.7,188.5C95.6,188.5,95.6,188.5,95.7,188.5z M97.2,186.2h3.3l-1.6-4
			L97.2,186.2z"/>
		<path class="st0" d="M103.7,181.5c0-0.1,0-0.1,0.1-0.2c0,0,0.1-0.1,0.2-0.1h2.4c0.3,0,0.6,0.1,0.9,0.2c0.3,0.1,0.5,0.3,0.7,0.5
			c0.2,0.2,0.4,0.5,0.5,0.7c0.1,0.3,0.2,0.6,0.2,0.9c0,0.3-0.1,0.6-0.2,0.9s-0.3,0.5-0.5,0.7s-0.5,0.4-0.7,0.5
			c-0.3,0.1-0.6,0.2-0.9,0.2h-2v2.6c0,0.2-0.1,0.2-0.2,0.2H104c-0.1,0-0.2-0.1-0.2-0.2V181.5z M108.1,183.6c0-0.2,0-0.5-0.1-0.7
			c-0.1-0.2-0.2-0.4-0.4-0.6c-0.2-0.2-0.3-0.3-0.6-0.4c-0.2-0.1-0.4-0.1-0.7-0.1h-2v3.5h2c0.2,0,0.5,0,0.7-0.1
			c0.2-0.1,0.4-0.2,0.6-0.4c0.2-0.2,0.3-0.3,0.4-0.6C108,184,108.1,183.8,108.1,183.6z"/>
		<path class="st0" d="M119.8,187.7l0-0.4c-0.1,0.2-0.3,0.4-0.5,0.6c-0.2,0.2-0.4,0.3-0.6,0.5c-0.2,0.1-0.5,0.2-0.7,0.3
			c-0.3,0.1-0.5,0.1-0.8,0.1c-0.3,0-0.6,0-0.9-0.1c-0.3-0.1-0.5-0.2-0.8-0.3c-0.2-0.1-0.5-0.3-0.7-0.5c-0.2-0.2-0.4-0.4-0.5-0.7
			c-0.1-0.2-0.3-0.5-0.3-0.8c-0.1-0.3-0.1-0.6-0.1-0.9s0-0.6,0.1-0.9c0.1-0.3,0.2-0.5,0.3-0.8c0.1-0.2,0.3-0.5,0.5-0.7
			c0.2-0.2,0.4-0.4,0.7-0.5c0.2-0.1,0.5-0.3,0.8-0.3c0.3-0.1,0.6-0.1,0.9-0.1c0.3,0,0.5,0,0.8,0.1c0.3,0.1,0.5,0.2,0.7,0.3
			c0.2,0.1,0.4,0.3,0.6,0.5c0.2,0.2,0.4,0.4,0.5,0.6v-0.4v-0.9c0-0.1,0.1-0.2,0.2-0.2h0.3c0.1,0,0.2,0.1,0.2,0.2v6
			c0,0.1,0,0.1-0.1,0.1c0,0-0.1,0-0.1,0H120c-0.1,0-0.2-0.1-0.2-0.2V187.7z M119.8,185.5c0-0.4-0.1-0.7-0.2-1s-0.3-0.6-0.6-0.9
			c-0.2-0.2-0.5-0.4-0.9-0.6s-0.7-0.2-1-0.2h0c-0.4,0-0.7,0.1-1,0.2c-0.3,0.1-0.6,0.3-0.8,0.6c-0.2,0.2-0.4,0.5-0.6,0.9
			c-0.1,0.3-0.2,0.7-0.2,1c0,0.4,0.1,0.7,0.2,1c0.1,0.3,0.3,0.6,0.6,0.9c0.2,0.3,0.5,0.5,0.8,0.6s0.7,0.2,1,0.2
			c0.4,0,0.7-0.1,1.1-0.2c0.3-0.1,0.6-0.3,0.9-0.6c0.2-0.2,0.4-0.5,0.6-0.9S119.8,185.9,119.8,185.5z"/>
		<path class="st0" d="M122.5,182.5c0-0.1,0-0.1,0.1-0.1s0.1,0,0.1,0h0.2c0.1,0,0.1,0,0.1,0.1c0,0,0,0.1,0,0.1v0.7
			c0.1-0.2,0.3-0.4,0.5-0.5c0.2-0.1,0.4-0.2,0.6-0.3c0.2-0.1,0.4-0.1,0.6-0.2c0.2,0,0.4,0,0.5,0c0.4,0,0.7,0.1,1,0.2
			c0.3,0.1,0.6,0.3,0.8,0.6c0.2,0.2,0.4,0.5,0.5,0.8c0.1,0.3,0.2,0.7,0.2,1v3.6c0,0.1,0,0.1-0.1,0.2c0,0-0.1,0.1-0.1,0.1h-0.2
			c-0.1,0-0.1,0-0.2,0s0-0.1,0-0.2v-3.6c0-0.3-0.1-0.5-0.2-0.8c-0.1-0.2-0.2-0.5-0.4-0.7c-0.2-0.2-0.4-0.3-0.6-0.5
			c-0.2-0.1-0.5-0.2-0.8-0.2c-0.3,0-0.5,0-0.8,0.1s-0.5,0.2-0.7,0.4c-0.2,0.2-0.4,0.4-0.5,0.6c-0.1,0.2-0.2,0.5-0.2,0.8v3.8
			c0,0.1,0,0.2-0.1,0.2h-0.3c-0.1,0-0.2-0.1-0.2-0.2v-1.4c0,0,0,0,0-0.1V182.5z"/>
		<path class="st0" d="M136,188.5c0,0.1-0.1,0.2-0.2,0.2h-0.3c-0.1,0-0.2-0.1-0.2-0.2v-0.8l0-0.4c-0.1,0.1-0.1,0.2-0.2,0.3
			s-0.2,0.2-0.2,0.3c-0.3,0.3-0.6,0.5-1,0.6c-0.4,0.1-0.8,0.2-1.2,0.2c-0.3,0-0.6,0-0.9-0.1s-0.5-0.2-0.8-0.3
			c-0.2-0.1-0.5-0.3-0.7-0.5c-0.2-0.2-0.4-0.4-0.5-0.7c-0.1-0.2-0.3-0.5-0.3-0.8c-0.1-0.3-0.1-0.6-0.1-0.9s0-0.6,0.1-0.9
			c0.1-0.3,0.2-0.5,0.3-0.8c0.1-0.2,0.3-0.5,0.5-0.7c0.2-0.2,0.4-0.4,0.7-0.5c0.2-0.1,0.5-0.3,0.8-0.3s0.6-0.1,0.9-0.1
			c0.2,0,0.4,0,0.6,0.1s0.4,0.1,0.6,0.2c0.2,0.1,0.4,0.2,0.5,0.3c0.2,0.1,0.3,0.2,0.5,0.4c0.1,0.1,0.2,0.2,0.2,0.3s0.1,0.2,0.2,0.3
			v-3.2c0,0,0,0,0-0.1c0,0,0,0,0.1,0l0.4,0c0.1,0,0.1,0,0.1,0.1V188.5z M130.1,185.5c0,0.4,0.1,0.7,0.2,1c0.1,0.3,0.3,0.6,0.6,0.9
			c0.2,0.2,0.5,0.4,0.8,0.6c0.3,0.1,0.7,0.2,1,0.2c0.4,0,0.7-0.1,1-0.2s0.6-0.3,0.9-0.6c0.2-0.2,0.4-0.5,0.6-0.9
			c0.1-0.3,0.2-0.7,0.2-1.1c0-0.4-0.1-0.7-0.2-1c-0.1-0.3-0.3-0.6-0.6-0.9c-0.2-0.3-0.5-0.4-0.9-0.6c-0.3-0.1-0.7-0.2-1-0.2
			c-0.4,0-0.7,0.1-1,0.2c-0.3,0.1-0.6,0.3-0.9,0.6s-0.4,0.5-0.6,0.9S130.1,185.1,130.1,185.5z"/>
		<path class="st0" d="M147.5,182c0.1,0,0.1,0.1,0.1,0.2c0,0,0,0.1,0,0.1l-0.1,0.2c0,0,0,0-0.1,0.1c0,0,0,0-0.1,0
			c-0.1,0-0.1,0-0.2-0.1c-0.3-0.2-0.6-0.4-0.9-0.5s-0.7-0.2-1-0.2c-0.3,0-0.6,0-0.9,0.1c-0.3,0.1-0.5,0.2-0.8,0.3s-0.5,0.3-0.7,0.5
			c-0.2,0.2-0.4,0.4-0.5,0.7c-0.1,0.2-0.2,0.5-0.3,0.8c-0.1,0.3-0.1,0.5-0.1,0.8c0,0.3,0,0.6,0.1,0.8c0.1,0.3,0.2,0.5,0.3,0.8
			c0.1,0.2,0.3,0.5,0.5,0.7c0.2,0.2,0.4,0.4,0.7,0.5c0.2,0.1,0.5,0.3,0.8,0.3c0.3,0.1,0.5,0.1,0.8,0.1c0.2,0,0.3,0,0.5,0
			c0.2,0,0.4-0.1,0.5-0.1c0.2-0.1,0.3-0.1,0.5-0.2c0.2-0.1,0.3-0.2,0.5-0.3c0,0,0.1,0,0.1,0c0.1,0,0.1,0,0.2,0.1l0.1,0.1
			c0,0,0,0.1,0,0.1c0,0.1,0,0.1-0.1,0.2c-0.3,0.3-0.7,0.4-1.1,0.6c-0.4,0.1-0.8,0.2-1.3,0.2c-0.3,0-0.7,0-1-0.1
			c-0.3-0.1-0.6-0.2-0.9-0.4c-0.3-0.2-0.5-0.4-0.8-0.6c-0.2-0.2-0.4-0.5-0.6-0.8s-0.3-0.6-0.4-0.9c-0.1-0.3-0.1-0.7-0.1-1
			c0-0.3,0-0.7,0.1-1s0.2-0.6,0.4-0.9c0.2-0.3,0.4-0.5,0.6-0.8c0.2-0.2,0.5-0.4,0.8-0.6c0.3-0.2,0.6-0.3,0.9-0.4s0.7-0.1,1-0.1
			c0.4,0,0.8,0.1,1.3,0.2S147.1,181.7,147.5,182z"/>
		<path class="st0" d="M155.1,187.7l0-0.4c-0.1,0.2-0.3,0.4-0.5,0.6c-0.2,0.2-0.4,0.3-0.6,0.5c-0.2,0.1-0.5,0.2-0.7,0.3
			c-0.3,0.1-0.5,0.1-0.8,0.1c-0.3,0-0.6,0-0.9-0.1c-0.3-0.1-0.5-0.2-0.8-0.3c-0.2-0.1-0.5-0.3-0.7-0.5c-0.2-0.2-0.4-0.4-0.5-0.7
			c-0.1-0.2-0.3-0.5-0.3-0.8c-0.1-0.3-0.1-0.6-0.1-0.9s0-0.6,0.1-0.9c0.1-0.3,0.2-0.5,0.3-0.8c0.1-0.2,0.3-0.5,0.5-0.7
			c0.2-0.2,0.4-0.4,0.7-0.5c0.2-0.1,0.5-0.3,0.8-0.3c0.3-0.1,0.6-0.1,0.9-0.1c0.3,0,0.5,0,0.8,0.1c0.3,0.1,0.5,0.2,0.7,0.3
			c0.2,0.1,0.4,0.3,0.6,0.5c0.2,0.2,0.4,0.4,0.5,0.6v-0.4v-0.9c0-0.1,0.1-0.2,0.2-0.2h0.3c0.1,0,0.2,0.1,0.2,0.2v6
			c0,0.1,0,0.1-0.1,0.1c0,0-0.1,0-0.1,0h-0.2c-0.1,0-0.2-0.1-0.2-0.2V187.7z M155.2,185.5c0-0.4-0.1-0.7-0.2-1s-0.3-0.6-0.6-0.9
			c-0.2-0.2-0.5-0.4-0.9-0.6s-0.7-0.2-1-0.2h0c-0.4,0-0.7,0.1-1,0.2c-0.3,0.1-0.6,0.3-0.8,0.6c-0.2,0.2-0.4,0.5-0.6,0.9
			c-0.1,0.3-0.2,0.7-0.2,1c0,0.4,0.1,0.7,0.2,1c0.1,0.3,0.3,0.6,0.6,0.9c0.2,0.3,0.5,0.5,0.8,0.6s0.7,0.2,1,0.2
			c0.4,0,0.7-0.1,1.1-0.2c0.3-0.1,0.6-0.3,0.9-0.6c0.2-0.2,0.4-0.5,0.6-0.9S155.2,185.9,155.2,185.5z"/>
		<path class="st0" d="M157.8,182.5c0-0.1,0-0.1,0.1-0.1s0.1,0,0.1,0h0.2c0.1,0,0.1,0,0.1,0.1c0,0,0,0.1,0,0.1v0.7
			c0.1-0.2,0.3-0.4,0.5-0.5c0.2-0.1,0.4-0.2,0.6-0.3c0.2-0.1,0.4-0.1,0.6-0.2c0.2,0,0.4,0,0.5,0c0.4,0,0.7,0.1,1,0.2
			c0.3,0.1,0.6,0.3,0.8,0.6c0.2,0.2,0.4,0.5,0.5,0.8c0.1,0.3,0.2,0.7,0.2,1v3.6c0,0.1,0,0.1-0.1,0.2c0,0-0.1,0.1-0.1,0.1h-0.2
			c-0.1,0-0.1,0-0.2,0s0-0.1,0-0.2v-3.6c0-0.3-0.1-0.5-0.2-0.8c-0.1-0.2-0.2-0.5-0.4-0.7c-0.2-0.2-0.4-0.3-0.6-0.5
			c-0.2-0.1-0.5-0.2-0.8-0.2c-0.3,0-0.5,0-0.8,0.1s-0.5,0.2-0.7,0.4c-0.2,0.2-0.4,0.4-0.5,0.6c-0.1,0.2-0.2,0.5-0.2,0.8v3.8
			c0,0.1,0,0.2-0.1,0.2H158c-0.1,0-0.2-0.1-0.2-0.2v-1.4c0,0,0,0,0-0.1V182.5z"/>
		<path class="st0" d="M167.2,187.7c0.1-0.2,0.2-0.4,0.3-0.7c0.1-0.3,0.2-0.5,0.3-0.8c0.1-0.3,0.2-0.6,0.4-0.9s0.2-0.6,0.4-0.9
			c0.1-0.3,0.2-0.6,0.3-0.9c0.1-0.3,0.2-0.5,0.3-0.8c0-0.1,0.1-0.2,0.1-0.2c0-0.1,0.1-0.1,0.1-0.1c0,0,0.1,0,0.1,0
			c0.1,0,0.1,0,0.2,0c0.1,0,0.1,0,0.2,0c0,0,0,0.1,0,0.1c0,0,0,0,0,0.1s0,0,0,0l-2.3,5.7c0,0.1,0,0.1-0.1,0.2s0,0.1-0.1,0.2
			c0,0-0.1,0.1-0.1,0.1c-0.1,0-0.1,0-0.2,0c0,0-0.1,0-0.1,0c0,0,0-0.1,0-0.1l-2.5-6c0,0,0,0,0-0.1c0-0.1,0-0.1,0.1-0.1s0.1,0,0.2,0
			c0.1,0,0.1,0,0.2,0s0.1,0,0.1,0.1c0.1,0.2,0.2,0.5,0.3,0.8c0.1,0.3,0.2,0.6,0.4,0.9c0.1,0.3,0.3,0.6,0.4,1c0.1,0.3,0.3,0.6,0.4,1
			c0.1,0.3,0.3,0.6,0.4,0.9C167,187.3,167.1,187.5,167.2,187.7z"/>
		<path class="st0" d="M176.8,187.7l0-0.4c-0.1,0.2-0.3,0.4-0.5,0.6c-0.2,0.2-0.4,0.3-0.6,0.5c-0.2,0.1-0.5,0.2-0.7,0.3
			c-0.3,0.1-0.5,0.1-0.8,0.1c-0.3,0-0.6,0-0.9-0.1c-0.3-0.1-0.5-0.2-0.8-0.3c-0.2-0.1-0.5-0.3-0.7-0.5c-0.2-0.2-0.4-0.4-0.5-0.7
			c-0.1-0.2-0.3-0.5-0.3-0.8c-0.1-0.3-0.1-0.6-0.1-0.9s0-0.6,0.1-0.9c0.1-0.3,0.2-0.5,0.3-0.8c0.1-0.2,0.3-0.5,0.5-0.7
			c0.2-0.2,0.4-0.4,0.7-0.5c0.2-0.1,0.5-0.3,0.8-0.3c0.3-0.1,0.6-0.1,0.9-0.1c0.3,0,0.5,0,0.8,0.1c0.3,0.1,0.5,0.2,0.7,0.3
			c0.2,0.1,0.4,0.3,0.6,0.5c0.2,0.2,0.4,0.4,0.5,0.6v-0.4v-0.9c0-0.1,0.1-0.2,0.2-0.2h0.3c0.1,0,0.2,0.1,0.2,0.2v6
			c0,0.1,0,0.1-0.1,0.1c0,0-0.1,0-0.1,0H177c-0.1,0-0.2-0.1-0.2-0.2V187.7z M176.8,185.5c0-0.4-0.1-0.7-0.2-1s-0.3-0.6-0.6-0.9
			c-0.2-0.2-0.5-0.4-0.9-0.6s-0.7-0.2-1-0.2h0c-0.4,0-0.7,0.1-1,0.2c-0.3,0.1-0.6,0.3-0.8,0.6c-0.2,0.2-0.4,0.5-0.6,0.9
			c-0.1,0.3-0.2,0.7-0.2,1c0,0.4,0.1,0.7,0.2,1c0.1,0.3,0.3,0.6,0.6,0.9c0.2,0.3,0.5,0.5,0.8,0.6s0.7,0.2,1,0.2
			c0.4,0,0.7-0.1,1.1-0.2c0.3-0.1,0.6-0.3,0.9-0.6c0.2-0.2,0.4-0.5,0.6-0.9S176.8,185.9,176.8,185.5z"/>
		<path class="st0" d="M179,187.3C179,187.3,179,187.3,179,187.3C179,187.3,179,187.3,179,187.3c0-0.1,0-0.2,0-0.2
			c0,0,0.1,0,0.1-0.1l0.2-0.1c0,0,0,0,0,0c0,0,0,0,0,0c0,0,0.1,0,0.1,0c0,0,0,0.1,0.1,0.1c0,0,0,0.1,0,0.1c0,0,0,0.1,0.1,0.1
			c0.1,0.1,0.2,0.3,0.3,0.4c0.1,0.1,0.3,0.2,0.4,0.3c0.1,0.1,0.3,0.1,0.4,0.1c0.1,0,0.3,0,0.4,0c0.1,0,0.3,0,0.5-0.1
			s0.4-0.1,0.5-0.2c0.2-0.1,0.3-0.2,0.4-0.4c0.1-0.2,0.2-0.3,0.2-0.6c0-0.2-0.1-0.4-0.1-0.5c-0.1-0.1-0.2-0.3-0.4-0.4
			s-0.3-0.2-0.5-0.3c-0.2-0.1-0.4-0.1-0.6-0.2c-0.2-0.1-0.5-0.1-0.7-0.2c-0.2-0.1-0.4-0.2-0.6-0.4s-0.3-0.3-0.4-0.5
			c-0.1-0.2-0.2-0.4-0.2-0.6c0-0.3,0-0.5,0.1-0.7c0.1-0.2,0.2-0.4,0.4-0.5s0.4-0.3,0.6-0.3c0.2-0.1,0.5-0.1,0.8-0.1
			c0.2,0,0.5,0,0.7,0.1s0.4,0.1,0.5,0.3c0.2,0.1,0.3,0.3,0.4,0.4c0.1,0.2,0.2,0.3,0.3,0.5l0,0c0,0,0,0.1,0,0.1c0,0,0,0.1,0,0.1
			c0,0-0.1,0.1-0.1,0.1s-0.1,0-0.1,0.1c0,0-0.1,0-0.1,0c0,0-0.1,0-0.1,0c0,0,0,0-0.1-0.1c0,0,0-0.1,0-0.1c0,0,0-0.1-0.1-0.1
			c-0.1-0.2-0.3-0.4-0.6-0.6c-0.2-0.1-0.5-0.2-0.8-0.2c-0.2,0-0.4,0-0.5,0.1c-0.2,0-0.3,0.1-0.4,0.2c-0.1,0.1-0.2,0.2-0.3,0.4
			c-0.1,0.1-0.1,0.3-0.1,0.5c0,0.2,0,0.3,0.1,0.4s0.2,0.2,0.4,0.3c0.1,0.1,0.3,0.2,0.5,0.2c0.2,0.1,0.3,0.1,0.5,0.1c0,0,0,0,0,0
			c0,0,0,0,0,0c0.3,0.1,0.6,0.2,0.8,0.3c0.3,0.1,0.5,0.2,0.6,0.4c0.2,0.2,0.3,0.3,0.4,0.5s0.1,0.4,0.1,0.7c0,0.3-0.1,0.5-0.2,0.8
			c-0.1,0.2-0.3,0.4-0.5,0.6s-0.4,0.3-0.7,0.4c-0.3,0.1-0.5,0.1-0.8,0.1c-0.2,0-0.5,0-0.7-0.1c-0.2-0.1-0.4-0.2-0.6-0.3
			s-0.3-0.3-0.5-0.5C179.2,187.8,179.1,187.6,179,187.3z"/>
		<path class="st0" d="M188.8,180.6c0-0.1,0-0.1,0.1-0.1l0.4,0c0,0,0,0,0.1,0s0,0,0,0.1v3.2c0.1-0.1,0.2-0.2,0.2-0.3
			c0.1-0.1,0.1-0.2,0.2-0.3c0.1-0.1,0.3-0.3,0.5-0.4c0.2-0.1,0.3-0.2,0.5-0.3s0.4-0.1,0.6-0.2c0.2,0,0.4-0.1,0.6-0.1
			c0.3,0,0.6,0,0.9,0.1s0.5,0.2,0.8,0.3c0.2,0.1,0.5,0.3,0.7,0.5c0.2,0.2,0.4,0.4,0.5,0.7c0.1,0.2,0.3,0.5,0.3,0.8
			c0.1,0.3,0.1,0.6,0.1,0.9s0,0.6-0.1,0.9s-0.2,0.5-0.3,0.8c-0.1,0.2-0.3,0.5-0.5,0.7c-0.2,0.2-0.4,0.4-0.7,0.5
			c-0.2,0.1-0.5,0.3-0.8,0.3s-0.6,0.1-0.9,0.1c-0.4,0-0.8-0.1-1.2-0.2c-0.4-0.2-0.7-0.4-1-0.6c-0.1-0.1-0.2-0.2-0.2-0.3
			s-0.1-0.2-0.2-0.3l0,0.4v0.8c0,0.1-0.1,0.2-0.2,0.2h-0.3c-0.1,0-0.2-0.1-0.2-0.2V180.6z M194.7,185.5c0-0.4-0.1-0.7-0.2-1
			s-0.3-0.6-0.6-0.9s-0.5-0.4-0.9-0.6c-0.3-0.1-0.7-0.2-1-0.2c-0.4,0-0.7,0.1-1,0.2s-0.6,0.3-0.9,0.6s-0.4,0.5-0.6,0.9
			c-0.1,0.3-0.2,0.7-0.2,1c0,0.4,0.1,0.7,0.2,1.1c0.1,0.3,0.3,0.6,0.6,0.9s0.5,0.4,0.9,0.6s0.7,0.2,1,0.2c0.4,0,0.7-0.1,1-0.2
			c0.3-0.1,0.6-0.3,0.8-0.6c0.2-0.2,0.4-0.5,0.6-0.9C194.6,186.2,194.7,185.9,194.7,185.5z"/>
		<path class="st0" d="M202.9,187.7l0-0.4c-0.1,0.2-0.3,0.4-0.5,0.6c-0.2,0.2-0.4,0.3-0.6,0.5c-0.2,0.1-0.5,0.2-0.7,0.3
			c-0.3,0.1-0.5,0.1-0.8,0.1c-0.3,0-0.6,0-0.9-0.1c-0.3-0.1-0.5-0.2-0.8-0.3c-0.2-0.1-0.5-0.3-0.7-0.5c-0.2-0.2-0.4-0.4-0.5-0.7
			c-0.1-0.2-0.3-0.5-0.3-0.8c-0.1-0.3-0.1-0.6-0.1-0.9s0-0.6,0.1-0.9c0.1-0.3,0.2-0.5,0.3-0.8c0.1-0.2,0.3-0.5,0.5-0.7
			c0.2-0.2,0.4-0.4,0.7-0.5c0.2-0.1,0.5-0.3,0.8-0.3c0.3-0.1,0.6-0.1,0.9-0.1c0.3,0,0.5,0,0.8,0.1c0.3,0.1,0.5,0.2,0.7,0.3
			c0.2,0.1,0.4,0.3,0.6,0.5c0.2,0.2,0.4,0.4,0.5,0.6v-0.4v-0.9c0-0.1,0.1-0.2,0.2-0.2h0.3c0.1,0,0.2,0.1,0.2,0.2v6
			c0,0.1,0,0.1-0.1,0.1c0,0-0.1,0-0.1,0h-0.2c-0.1,0-0.2-0.1-0.2-0.2V187.7z M202.9,185.5c0-0.4-0.1-0.7-0.2-1s-0.3-0.6-0.6-0.9
			s-0.5-0.4-0.9-0.6c-0.3-0.1-0.7-0.2-1-0.2h0c-0.4,0-0.7,0.1-1,0.2s-0.6,0.3-0.8,0.6c-0.2,0.2-0.4,0.5-0.6,0.9
			c-0.1,0.3-0.2,0.7-0.2,1c0,0.4,0.1,0.7,0.2,1c0.1,0.3,0.3,0.6,0.6,0.9c0.2,0.3,0.5,0.5,0.8,0.6c0.3,0.1,0.7,0.2,1,0.2
			c0.4,0,0.7-0.1,1.1-0.2s0.6-0.3,0.9-0.6c0.2-0.2,0.4-0.5,0.6-0.9C202.8,186.2,202.9,185.9,202.9,185.5z"/>
		<path class="st0" d="M205.1,187.3C205.1,187.3,205.1,187.3,205.1,187.3C205.1,187.3,205.1,187.3,205.1,187.3c0-0.1,0-0.2,0-0.2
			c0,0,0.1,0,0.1-0.1l0.2-0.1c0,0,0,0,0,0s0,0,0,0c0,0,0,0,0.1,0c0,0,0,0.1,0.1,0.1c0,0,0,0.1,0,0.1c0,0,0,0.1,0.1,0.1
			c0.1,0.1,0.2,0.3,0.3,0.4s0.3,0.2,0.4,0.3c0.1,0.1,0.3,0.1,0.4,0.1c0.1,0,0.3,0,0.4,0c0.2,0,0.3,0,0.5-0.1s0.4-0.1,0.5-0.2
			s0.3-0.2,0.4-0.4c0.1-0.2,0.2-0.3,0.2-0.6c0-0.2,0-0.4-0.1-0.5c-0.1-0.1-0.2-0.3-0.4-0.4c-0.2-0.1-0.3-0.2-0.5-0.3
			c-0.2-0.1-0.4-0.1-0.6-0.2c-0.2-0.1-0.5-0.1-0.7-0.2c-0.2-0.1-0.4-0.2-0.6-0.4s-0.3-0.3-0.4-0.5c-0.1-0.2-0.2-0.4-0.2-0.6
			c0-0.3,0-0.5,0.1-0.7c0.1-0.2,0.2-0.4,0.4-0.5c0.2-0.2,0.4-0.3,0.6-0.3c0.2-0.1,0.5-0.1,0.8-0.1c0.2,0,0.5,0,0.7,0.1
			c0.2,0.1,0.4,0.1,0.5,0.3c0.2,0.1,0.3,0.3,0.4,0.4c0.1,0.2,0.2,0.3,0.3,0.5l0,0c0,0,0,0.1,0,0.1c0,0,0,0.1,0,0.1
			c0,0-0.1,0.1-0.1,0.1c0,0-0.1,0-0.1,0.1c0,0-0.1,0-0.1,0c0,0-0.1,0-0.1,0c0,0,0,0-0.1-0.1s0-0.1,0-0.1c0,0,0-0.1-0.1-0.1
			c-0.1-0.2-0.3-0.4-0.6-0.6c-0.2-0.1-0.5-0.2-0.9-0.2c-0.2,0-0.4,0-0.5,0.1c-0.2,0-0.3,0.1-0.4,0.2c-0.1,0.1-0.2,0.2-0.3,0.4
			c-0.1,0.1-0.1,0.3-0.1,0.5c0,0.2,0.1,0.3,0.2,0.4s0.2,0.2,0.4,0.3c0.1,0.1,0.3,0.2,0.5,0.2c0.2,0.1,0.3,0.1,0.5,0.1c0,0,0,0,0.1,0
			c0,0,0,0,0,0c0.3,0.1,0.6,0.2,0.8,0.3c0.3,0.1,0.5,0.2,0.6,0.4s0.3,0.3,0.4,0.5s0.1,0.4,0.1,0.7c0,0.3-0.1,0.5-0.2,0.8
			c-0.1,0.2-0.3,0.4-0.5,0.6s-0.4,0.3-0.7,0.4c-0.3,0.1-0.5,0.1-0.8,0.1c-0.2,0-0.5,0-0.7-0.1s-0.4-0.2-0.6-0.3s-0.3-0.3-0.5-0.5
			C205.2,187.8,205.1,187.6,205.1,187.3z"/>
		<path class="st0" d="M211.5,185.7c0,0.1,0,0.1,0,0.2c0,0.1,0,0.2,0,0.3c0.1,0.3,0.2,0.6,0.4,0.8c0.2,0.2,0.4,0.5,0.6,0.6
			c0.2,0.2,0.5,0.3,0.7,0.4c0.3,0.1,0.6,0.2,0.9,0.2c0.2,0,0.3,0,0.5,0c0.2,0,0.3-0.1,0.4-0.1c0.1,0,0.3-0.1,0.4-0.2
			s0.2-0.1,0.3-0.2c0,0,0.1,0,0.1-0.1c0,0,0.1-0.1,0.1-0.1c0,0,0.1,0,0.1-0.1s0.1,0,0.1,0c0,0,0.1,0,0.1,0.1
			c0.1,0.1,0.1,0.1,0.1,0.2c0,0,0,0.1,0,0.1c0,0,0,0,0,0c0,0,0,0,0,0c0,0-0.1,0.1-0.1,0.1c-0.1,0-0.1,0.1-0.2,0.1
			c-0.3,0.2-0.6,0.3-0.9,0.5s-0.7,0.2-1,0.2c-0.5,0-0.9-0.1-1.3-0.3c-0.4-0.2-0.7-0.4-1-0.7c-0.3-0.3-0.5-0.6-0.7-1
			s-0.3-0.8-0.3-1.3c0-0.3,0-0.6,0.1-0.9c0.1-0.3,0.2-0.5,0.3-0.8c0.1-0.2,0.3-0.5,0.5-0.7c0.2-0.2,0.4-0.4,0.7-0.5
			c0.2-0.1,0.5-0.3,0.8-0.3c0.3-0.1,0.6-0.1,0.9-0.1c0.3,0,0.6,0,0.8,0.1s0.5,0.2,0.8,0.3c0.2,0.1,0.5,0.3,0.7,0.5s0.4,0.4,0.5,0.7
			s0.3,0.5,0.3,0.8s0.1,0.6,0.1,0.9v0c0,0,0,0,0,0s0,0,0,0c0,0.1-0.1,0.2-0.2,0.2H211.5z M213.5,182.9c-0.3,0.1-0.5,0.2-0.7,0.3
			s-0.4,0.3-0.6,0.5c-0.2,0.2-0.3,0.4-0.4,0.7s-0.2,0.5-0.2,0.8h5.3c0-0.3-0.1-0.6-0.3-0.9c-0.2-0.3-0.4-0.5-0.6-0.7
			c-0.2-0.2-0.5-0.4-0.8-0.5s-0.6-0.2-1-0.2c-0.1,0-0.2,0-0.3,0C213.7,182.8,213.6,182.9,213.5,182.9z"/>
		<path class="st0" d="M225.6,188.5c0,0.1-0.1,0.2-0.2,0.2h-0.3c-0.1,0-0.2-0.1-0.2-0.2v-0.8l0-0.4c-0.1,0.1-0.1,0.2-0.2,0.3
			c-0.1,0.1-0.2,0.2-0.2,0.3c-0.3,0.3-0.6,0.5-1,0.6c-0.4,0.1-0.8,0.2-1.2,0.2c-0.3,0-0.6,0-0.9-0.1s-0.5-0.2-0.8-0.3
			c-0.2-0.1-0.5-0.3-0.7-0.5c-0.2-0.2-0.4-0.4-0.5-0.7c-0.1-0.2-0.3-0.5-0.3-0.8s-0.1-0.6-0.1-0.9s0-0.6,0.1-0.9
			c0.1-0.3,0.2-0.5,0.3-0.8c0.1-0.2,0.3-0.5,0.5-0.7c0.2-0.2,0.4-0.4,0.7-0.5c0.2-0.1,0.5-0.3,0.8-0.3s0.6-0.1,0.9-0.1
			c0.2,0,0.4,0,0.6,0.1s0.4,0.1,0.6,0.2s0.4,0.2,0.5,0.3c0.2,0.1,0.3,0.2,0.5,0.4c0.1,0.1,0.2,0.2,0.2,0.3c0.1,0.1,0.1,0.2,0.2,0.3
			v-3.2c0,0,0,0,0-0.1s0,0,0.1,0l0.4,0c0.1,0,0.1,0,0.1,0.1V188.5z M219.7,185.5c0,0.4,0.1,0.7,0.2,1c0.1,0.3,0.3,0.6,0.6,0.9
			c0.2,0.2,0.5,0.4,0.8,0.6c0.3,0.1,0.7,0.2,1,0.2c0.4,0,0.7-0.1,1-0.2s0.6-0.3,0.9-0.6c0.2-0.2,0.4-0.5,0.6-0.9s0.2-0.7,0.2-1.1
			c0-0.4-0.1-0.7-0.2-1s-0.3-0.6-0.6-0.9s-0.5-0.4-0.9-0.6c-0.3-0.1-0.7-0.2-1-0.2s-0.7,0.1-1,0.2c-0.3,0.1-0.6,0.3-0.9,0.6
			c-0.2,0.3-0.4,0.5-0.6,0.9S219.7,185.1,219.7,185.5z"/>
		<path class="st0" d="M233.6,182.8c-0.2,0-0.5,0-0.7,0.1c-0.2,0.1-0.4,0.2-0.6,0.3s-0.3,0.3-0.4,0.5s-0.2,0.4-0.2,0.7v2.5
			c0,0,0,0,0,0c0,0,0,0,0,0v1.4c0,0.1-0.1,0.2-0.2,0.2h-0.3c-0.1,0-0.2-0.1-0.2-0.2v-6c0-0.1,0-0.1,0.1-0.1c0,0,0.1,0,0.1,0h0.2
			c0.1,0,0.1,0,0.1,0.1c0,0,0,0.1,0,0.1v0.8c0.1-0.2,0.2-0.3,0.4-0.4c0.1-0.1,0.3-0.2,0.4-0.3c0.2-0.1,0.3-0.2,0.5-0.2
			s0.4-0.1,0.6-0.1c0.5,0,0.9,0.1,1.3,0.4c0.4,0.2,0.6,0.6,0.8,1c0.1-0.2,0.2-0.4,0.4-0.6s0.3-0.3,0.5-0.4c0.2-0.1,0.4-0.2,0.6-0.2
			c0.2-0.1,0.4-0.1,0.7-0.1c0.3,0,0.6,0.1,0.9,0.2c0.3,0.1,0.5,0.3,0.7,0.4c0.2,0.2,0.4,0.4,0.5,0.7c0.1,0.3,0.2,0.5,0.2,0.8
			c0,0.1,0,0.2,0,0.3c0,0.1,0,0.2,0,0.4v3.4c0,0.1,0,0.1-0.1,0.2c0,0-0.1,0.1-0.1,0.1h-0.2c-0.1,0-0.1,0-0.2,0c0,0,0-0.1,0-0.2v-3.8
			c0-0.2-0.1-0.5-0.1-0.7c-0.1-0.2-0.2-0.4-0.4-0.6c-0.2-0.2-0.3-0.3-0.6-0.4s-0.5-0.2-0.8-0.2c-0.2,0-0.4,0-0.6,0.1
			s-0.4,0.2-0.5,0.3c-0.2,0.1-0.3,0.3-0.4,0.5c-0.1,0.2-0.2,0.4-0.2,0.6c0,0.2-0.1,0.5-0.1,0.7v3.4c0,0.1,0,0.1-0.1,0.2
			c0,0-0.1,0.1-0.1,0.1h-0.2c-0.1,0-0.1,0-0.2,0s0-0.1,0-0.2V185c0-0.1,0-0.2,0-0.3c0-0.1,0-0.2,0-0.3c0-0.2-0.1-0.4-0.2-0.6
			c-0.1-0.2-0.2-0.3-0.4-0.5c-0.2-0.1-0.3-0.2-0.5-0.3C234.1,182.9,233.9,182.8,233.6,182.8z"/>
		<path class="st0" d="M241.9,185.5c0-0.3,0-0.6,0.1-0.9c0.1-0.3,0.2-0.5,0.3-0.8c0.1-0.2,0.3-0.5,0.5-0.7c0.2-0.2,0.4-0.4,0.7-0.5
			c0.2-0.1,0.5-0.3,0.8-0.3s0.6-0.1,0.9-0.1s0.6,0,0.9,0.1s0.5,0.2,0.8,0.3c0.2,0.1,0.5,0.3,0.7,0.5c0.2,0.2,0.4,0.4,0.5,0.7
			c0.1,0.2,0.3,0.5,0.3,0.8c0.1,0.3,0.1,0.6,0.1,0.9s0,0.6-0.1,0.9s-0.2,0.5-0.3,0.8c-0.1,0.2-0.3,0.5-0.5,0.7
			c-0.2,0.2-0.4,0.4-0.7,0.5c-0.2,0.1-0.5,0.3-0.8,0.3s-0.6,0.1-0.9,0.1s-0.6,0-0.9-0.1s-0.5-0.2-0.8-0.3c-0.2-0.1-0.5-0.3-0.7-0.5
			s-0.4-0.4-0.5-0.7s-0.3-0.5-0.3-0.8S241.9,185.8,241.9,185.5z M242.5,185.5c0,0.2,0,0.5,0.1,0.7c0.1,0.2,0.2,0.4,0.3,0.6
			c0.1,0.2,0.3,0.4,0.4,0.6c0.2,0.2,0.3,0.3,0.5,0.4c0.2,0.1,0.4,0.2,0.6,0.3c0.2,0.1,0.5,0.1,0.7,0.1c0.4,0,0.7-0.1,1-0.2
			s0.6-0.3,0.9-0.6c0.2-0.2,0.4-0.5,0.6-0.9s0.2-0.7,0.2-1.1c0-0.4-0.1-0.7-0.2-1c-0.1-0.3-0.3-0.6-0.6-0.9
			c-0.2-0.3-0.5-0.4-0.8-0.6c-0.3-0.1-0.7-0.2-1-0.2s-0.7,0.1-1,0.2c-0.3,0.1-0.6,0.3-0.9,0.6c-0.2,0.3-0.4,0.5-0.6,0.9
			C242.6,184.8,242.5,185.1,242.5,185.5z"/>
		<path class="st0" d="M254.8,188l0-0.3c-0.1,0.2-0.2,0.3-0.4,0.5c-0.1,0.1-0.3,0.3-0.5,0.3s-0.4,0.2-0.6,0.2
			c-0.2,0.1-0.4,0.1-0.6,0.1c-0.4,0-0.7-0.1-1.1-0.2s-0.6-0.3-0.8-0.6c-0.2-0.2-0.4-0.5-0.5-0.8c-0.1-0.3-0.2-0.7-0.2-1v-3.6
			c0-0.1,0-0.1,0.1-0.2c0,0,0.1-0.1,0.1-0.1h0.2c0.1,0,0.1,0,0.2,0c0,0,0,0.1,0,0.2v3.6c0,0.3,0.1,0.5,0.2,0.8
			c0.1,0.2,0.2,0.5,0.4,0.7c0.2,0.2,0.4,0.3,0.7,0.5c0.3,0.1,0.5,0.2,0.9,0.2c0.3,0,0.5,0,0.8-0.1c0.2-0.1,0.5-0.2,0.6-0.4
			s0.3-0.4,0.5-0.6s0.2-0.5,0.2-0.8v-3.7c0-0.1,0.1-0.2,0.2-0.2h0.3c0.1,0,0.2,0.1,0.2,0.2v6c0,0.1-0.1,0.2-0.2,0.2H255
			c-0.1,0-0.2-0.1-0.2-0.2V188z"/>
		<path class="st0" d="M257.1,187.3C257,187.3,257,187.3,257.1,187.3C257,187.3,257,187.3,257.1,187.3c0-0.1,0-0.2,0-0.2
			c0,0,0.1,0,0.1-0.1l0.2-0.1c0,0,0,0,0,0s0,0,0,0c0,0,0,0,0.1,0c0,0,0,0.1,0.1,0.1c0,0,0,0.1,0,0.1c0,0,0,0.1,0.1,0.1
			c0.1,0.1,0.2,0.3,0.3,0.4s0.3,0.2,0.4,0.3c0.1,0.1,0.3,0.1,0.4,0.1c0.1,0,0.3,0,0.4,0c0.2,0,0.3,0,0.5-0.1s0.4-0.1,0.5-0.2
			s0.3-0.2,0.4-0.4c0.1-0.2,0.2-0.3,0.2-0.6c0-0.2,0-0.4-0.1-0.5c-0.1-0.1-0.2-0.3-0.4-0.4c-0.2-0.1-0.3-0.2-0.5-0.3
			c-0.2-0.1-0.4-0.1-0.6-0.2c-0.2-0.1-0.5-0.1-0.7-0.2c-0.2-0.1-0.4-0.2-0.6-0.4s-0.3-0.3-0.4-0.5c-0.1-0.2-0.2-0.4-0.2-0.6
			c0-0.3,0-0.5,0.1-0.7c0.1-0.2,0.2-0.4,0.4-0.5c0.2-0.2,0.4-0.3,0.6-0.3c0.2-0.1,0.5-0.1,0.8-0.1c0.2,0,0.5,0,0.7,0.1
			c0.2,0.1,0.4,0.1,0.5,0.3c0.2,0.1,0.3,0.3,0.4,0.4c0.1,0.2,0.2,0.3,0.3,0.5l0,0c0,0,0,0.1,0,0.1c0,0,0,0.1,0,0.1
			c0,0-0.1,0.1-0.1,0.1c0,0-0.1,0-0.1,0.1c0,0-0.1,0-0.1,0c0,0-0.1,0-0.1,0c0,0,0,0-0.1-0.1s0-0.1,0-0.1c0,0,0-0.1-0.1-0.1
			c-0.1-0.2-0.3-0.4-0.6-0.6c-0.2-0.1-0.5-0.2-0.9-0.2c-0.2,0-0.4,0-0.5,0.1c-0.2,0-0.3,0.1-0.4,0.2c-0.1,0.1-0.2,0.2-0.3,0.4
			c-0.1,0.1-0.1,0.3-0.1,0.5c0,0.2,0.1,0.3,0.2,0.4s0.2,0.2,0.4,0.3c0.1,0.1,0.3,0.2,0.5,0.2c0.2,0.1,0.3,0.1,0.5,0.1c0,0,0,0,0.1,0
			c0,0,0,0,0,0c0.3,0.1,0.6,0.2,0.8,0.3c0.3,0.1,0.5,0.2,0.6,0.4s0.3,0.3,0.4,0.5s0.1,0.4,0.1,0.7c0,0.3-0.1,0.5-0.2,0.8
			c-0.1,0.2-0.3,0.4-0.5,0.6s-0.4,0.3-0.7,0.4c-0.3,0.1-0.5,0.1-0.8,0.1c-0.2,0-0.5,0-0.7-0.1s-0.4-0.2-0.6-0.3s-0.3-0.3-0.5-0.5
			C257.2,187.8,257.1,187.6,257.1,187.3z"/>
		<path class="st0" d="M263.5,185.7c0,0.1,0,0.1,0,0.2c0,0.1,0,0.2,0,0.3c0.1,0.3,0.2,0.6,0.4,0.8c0.2,0.2,0.4,0.5,0.6,0.6
			c0.2,0.2,0.5,0.3,0.7,0.4c0.3,0.1,0.6,0.2,0.9,0.2c0.2,0,0.3,0,0.5,0c0.2,0,0.3-0.1,0.4-0.1c0.1,0,0.3-0.1,0.4-0.2
			s0.2-0.1,0.3-0.2c0,0,0.1,0,0.1-0.1c0,0,0.1-0.1,0.1-0.1c0,0,0.1,0,0.1-0.1s0.1,0,0.1,0c0,0,0.1,0,0.1,0.1
			c0.1,0.1,0.1,0.1,0.1,0.2c0,0,0,0.1,0,0.1c0,0,0,0,0,0c0,0,0,0,0,0c0,0-0.1,0.1-0.1,0.1c-0.1,0-0.1,0.1-0.2,0.1
			c-0.3,0.2-0.6,0.3-0.9,0.5s-0.7,0.2-1,0.2c-0.5,0-0.9-0.1-1.3-0.3c-0.4-0.2-0.7-0.4-1-0.7c-0.3-0.3-0.5-0.6-0.7-1
			s-0.3-0.8-0.3-1.3c0-0.3,0-0.6,0.1-0.9c0.1-0.3,0.2-0.5,0.3-0.8c0.1-0.2,0.3-0.5,0.5-0.7c0.2-0.2,0.4-0.4,0.7-0.5
			c0.2-0.1,0.5-0.3,0.8-0.3c0.3-0.1,0.6-0.1,0.9-0.1c0.3,0,0.6,0,0.8,0.1s0.5,0.2,0.8,0.3c0.2,0.1,0.5,0.3,0.7,0.5s0.4,0.4,0.5,0.7
			s0.3,0.5,0.3,0.8s0.1,0.6,0.1,0.9v0c0,0,0,0,0,0s0,0,0,0c0,0.1-0.1,0.2-0.2,0.2H263.5z M265.4,182.9c-0.3,0.1-0.5,0.2-0.7,0.3
			s-0.4,0.3-0.6,0.5c-0.2,0.2-0.3,0.4-0.4,0.7s-0.2,0.5-0.2,0.8h5.3c0-0.3-0.1-0.6-0.3-0.9c-0.2-0.3-0.4-0.5-0.6-0.7
			c-0.2-0.2-0.5-0.4-0.8-0.5s-0.6-0.2-1-0.2c-0.1,0-0.2,0-0.3,0C265.7,182.8,265.6,182.9,265.4,182.9z"/>
		<path class="st0" d="M270.9,185.5c0-0.3,0-0.6,0.1-0.9c0.1-0.3,0.2-0.5,0.3-0.8c0.1-0.2,0.3-0.5,0.5-0.7c0.2-0.2,0.4-0.4,0.7-0.5
			c0.2-0.1,0.5-0.3,0.8-0.3s0.6-0.1,0.9-0.1s0.6,0,0.9,0.1s0.5,0.2,0.8,0.3c0.2,0.1,0.5,0.3,0.7,0.5c0.2,0.2,0.4,0.4,0.5,0.7
			c0.1,0.2,0.3,0.5,0.3,0.8c0.1,0.3,0.1,0.6,0.1,0.9s0,0.6-0.1,0.9s-0.2,0.5-0.3,0.8c-0.1,0.2-0.3,0.5-0.5,0.7
			c-0.2,0.2-0.4,0.4-0.7,0.5c-0.2,0.1-0.5,0.3-0.8,0.3s-0.6,0.1-0.9,0.1s-0.6,0-0.9-0.1s-0.5-0.2-0.8-0.3c-0.2-0.1-0.5-0.3-0.7-0.5
			s-0.4-0.4-0.5-0.7s-0.3-0.5-0.3-0.8S270.9,185.8,270.9,185.5z M271.5,185.5c0,0.2,0,0.5,0.1,0.7c0.1,0.2,0.2,0.4,0.3,0.6
			c0.1,0.2,0.3,0.4,0.4,0.6c0.2,0.2,0.3,0.3,0.5,0.4c0.2,0.1,0.4,0.2,0.6,0.3c0.2,0.1,0.5,0.1,0.7,0.1c0.4,0,0.7-0.1,1-0.2
			s0.6-0.3,0.9-0.6c0.2-0.2,0.4-0.5,0.6-0.9s0.2-0.7,0.2-1.1c0-0.4-0.1-0.7-0.2-1c-0.1-0.3-0.3-0.6-0.6-0.9
			c-0.2-0.3-0.5-0.4-0.8-0.6c-0.3-0.1-0.7-0.2-1-0.2s-0.7,0.1-1,0.2c-0.3,0.1-0.6,0.3-0.9,0.6c-0.2,0.3-0.4,0.5-0.6,0.9
			C271.6,184.8,271.5,185.1,271.5,185.5z"/>
		<path class="st0" d="M281.1,187.7c0.1-0.2,0.2-0.4,0.3-0.7c0.1-0.3,0.2-0.5,0.3-0.8s0.2-0.6,0.4-0.9s0.2-0.6,0.4-0.9
			s0.2-0.6,0.3-0.9c0.1-0.3,0.2-0.5,0.3-0.8c0-0.1,0.1-0.2,0.1-0.2s0.1-0.1,0.1-0.1c0,0,0.1,0,0.1,0s0.1,0,0.2,0c0.1,0,0.1,0,0.2,0
			c0,0,0,0.1,0,0.1c0,0,0,0,0,0.1c0,0,0,0,0,0l-2.3,5.7c0,0.1,0,0.1-0.1,0.2s0,0.1-0.1,0.2c0,0-0.1,0.1-0.1,0.1c-0.1,0-0.1,0-0.2,0
			c0,0-0.1,0-0.1,0c0,0,0-0.1,0-0.1l-2.5-6c0,0,0,0,0-0.1c0-0.1,0-0.1,0.1-0.1s0.1,0,0.2,0c0.1,0,0.1,0,0.2,0s0.1,0,0.1,0.1
			c0.1,0.2,0.2,0.5,0.3,0.8c0.1,0.3,0.2,0.6,0.4,0.9c0.1,0.3,0.3,0.6,0.4,1c0.1,0.3,0.3,0.6,0.4,1c0.1,0.3,0.3,0.6,0.4,0.9
			C280.8,187.3,281,187.5,281.1,187.7z"/>
		<path class="st0" d="M285.2,185.7c0,0.1,0,0.1,0,0.2c0,0.1,0,0.2,0,0.3c0.1,0.3,0.2,0.6,0.4,0.8c0.2,0.2,0.4,0.5,0.6,0.6
			c0.2,0.2,0.5,0.3,0.7,0.4c0.3,0.1,0.6,0.2,0.9,0.2c0.2,0,0.3,0,0.5,0c0.2,0,0.3-0.1,0.4-0.1c0.1,0,0.3-0.1,0.4-0.2
			s0.2-0.1,0.3-0.2c0,0,0.1,0,0.1-0.1c0,0,0.1-0.1,0.1-0.1c0,0,0.1,0,0.1-0.1s0.1,0,0.1,0c0,0,0.1,0,0.1,0.1
			c0.1,0.1,0.1,0.1,0.1,0.2c0,0,0,0.1,0,0.1c0,0,0,0,0,0c0,0,0,0,0,0c0,0-0.1,0.1-0.1,0.1c-0.1,0-0.1,0.1-0.2,0.1
			c-0.3,0.2-0.6,0.3-0.9,0.5s-0.7,0.2-1,0.2c-0.5,0-0.9-0.1-1.3-0.3c-0.4-0.2-0.7-0.4-1-0.7c-0.3-0.3-0.5-0.6-0.7-1
			s-0.3-0.8-0.3-1.3c0-0.3,0-0.6,0.1-0.9c0.1-0.3,0.2-0.5,0.3-0.8c0.1-0.2,0.3-0.5,0.5-0.7c0.2-0.2,0.4-0.4,0.7-0.5
			c0.2-0.1,0.5-0.3,0.8-0.3c0.3-0.1,0.6-0.1,0.9-0.1c0.3,0,0.6,0,0.8,0.1s0.5,0.2,0.8,0.3c0.2,0.1,0.5,0.3,0.7,0.5s0.4,0.4,0.5,0.7
			s0.3,0.5,0.3,0.8s0.1,0.6,0.1,0.9v0c0,0,0,0,0,0s0,0,0,0c0,0.1-0.1,0.2-0.2,0.2H285.2z M287.2,182.9c-0.3,0.1-0.5,0.2-0.7,0.3
			s-0.4,0.3-0.6,0.5c-0.2,0.2-0.3,0.4-0.4,0.7s-0.2,0.5-0.2,0.8h5.3c0-0.3-0.1-0.6-0.3-0.9c-0.2-0.3-0.4-0.5-0.6-0.7
			c-0.2-0.2-0.5-0.4-0.8-0.5s-0.6-0.2-1-0.2c-0.1,0-0.2,0-0.3,0C287.5,182.8,287.3,182.9,287.2,182.9z"/>
		<path class="st0" d="M296.9,183.4C296.9,183.4,296.9,183.4,296.9,183.4c-0.1,0-0.1,0-0.1,0c0,0-0.1,0-0.1-0.1
			c-0.1,0-0.2-0.1-0.2-0.2c-0.1-0.1-0.2-0.1-0.3-0.1c-0.1,0-0.2-0.1-0.3-0.1c-0.1,0-0.2,0-0.3,0c-0.3,0-0.5,0-0.7,0.1
			s-0.4,0.2-0.6,0.4c-0.2,0.2-0.3,0.4-0.4,0.6c-0.1,0.2-0.1,0.5-0.1,0.8v3.7c0,0.1-0.1,0.2-0.2,0.2h-0.3c-0.1,0-0.2-0.1-0.2-0.2v-6
			c0-0.1,0-0.1,0.1-0.1c0,0,0,0,0,0c0,0,0,0,0,0h0.2c0.1,0,0.1,0,0.1,0.1c0,0,0,0.1,0,0.1v0.8c0.1-0.1,0.2-0.3,0.3-0.4
			c0.1-0.1,0.2-0.2,0.4-0.3s0.3-0.2,0.5-0.2c0.2-0.1,0.4-0.1,0.6-0.1c0.2,0,0.3,0,0.5,0s0.3,0.1,0.4,0.1c0.1,0,0.3,0.1,0.4,0.2
			c0.1,0.1,0.2,0.2,0.4,0.3c0,0,0.1,0.1,0.1,0.1c0,0,0,0.1,0,0.1c0,0,0,0.1-0.1,0.1S297,183.3,296.9,183.4z"/>
	</g>
</g>
</svg>
